{
  "accessors": [
    {
      "bufferView": 3,
      "componentType": 5126,
      "count": 3087,
      "max": [
        0.6787241101264954,
        1.923125982284546,
        0.2116364985704422
      ],
      "min": [
        -0.6787238121032715,
        -0.0016182810068130493,
        -0.18209829926490784
      ],
      "type": "VEC3"
    },
    {
      "bufferView": 3,
      "byteOffset": 37044,
      "componentType": 5126,
      "count": 3087,
      "max": [
        0.9992302060127258,
        0.9992002248764038,
        0.9999942183494568
      ],
      "min": [
        -0.999534010887146,
        -0.9967460036277771,
        -0.9999225735664368
      ],
      "type": "VEC3"
    },
    {
      "bufferView": 2,
      "componentType": 5126,
      "count": 3087,
      "max": [
        0.9982280135154724,
        0.9996190071105957
      ],
      "min": [
        0.0005290000117383897,
        0.0011029839515686035
      ],
      "type": "VEC2"
    },
    {
      "bufferView": 1,
      "componentType": 5125,
      "count": 14733,
      "type": "SCALAR"
    },
    {
      "bufferView": 3,
      "byteOffset": 74088,
      "componentType": 5126,
      "count": 50,
      "max": [
        0.06156302988529205,
        1.8046760559082031,
        0.142363503575325
      ],
      "min": [
        -0.062016040086746216,
        1.760246992111206,
        0.12553070485591888
      ],
      "type": "VEC3"
    },
    {
      "bufferView": 3,
      "byteOffset": 74688,
      "componentType": 5126,
      "count": 50,
      "max": [
        0.618047833442688,
        0.029023820534348488,
        0.9969062209129333
      ],
      "min": [
        -0.6180148124694824,
        -0.19709427654743195,
        0.7854467034339905
      ],
      "type": "VEC3"
    },
    {
      "bufferView": 2,
      "byteOffset": 24696,
      "componentType": 5126,
      "count": 50,
      "max": [
        0.9779689908027649,
        0.9417369961738586
      ],
      "min": [
        0.019495999440550804,
        0.06564301252365112
      ],
      "type": "VEC2"
    },
    {
      "bufferView": 1,
      "byteOffset": 58932,
      "componentType": 5125,
      "count": 198,
      "type": "SCALAR"
    },
    {
      "bufferView": 5,
      "componentType": 5126,
      "count": 46,
      "max": [
        1.0,
        0.0,
        0.0,
        0.0,
        0.0,
        1.0,
        0.0,
        0.0,
        0.0,
        0.0,
        1.0,
        0.0,
        0.6710280179977417,
        0.0,
        0.08592983335256577,
        1.0
      ],
      "min": [
        1.0,
        0.0,
        0.0,
        0.0,
        0.0,
        1.0,
        0.0,
        0.0,
        0.0,
        0.0,
        1.0,
        0.0,
        -0.6709027290344238,
        -1.6792819499969482,
        -0.10188619792461395,
        1.0
      ],
      "type": "MAT4"
    },
    {
      "bufferView": 0,
      "componentType": 5123,
      "count": 3087,
      "type": "VEC4"
    },
    {
      "bufferView": 4,
      "componentType": 5126,
      "count": 3087,
      "max": [
        1.0,
        0.5,
        0.3281848132610321,
        0.0
      ],
      "min": [
        0.3401050567626953,
        0.0,
        0.0,
        0.0
      ],
      "type": "VEC4"
    },
    {
      "bufferView": 0,
      "byteOffset": 24696,
      "componentType": 5123,
      "count": 50,
      "type": "VEC4"
    },
    {
      "bufferView": 4,
      "byteOffset": 49392,
      "componentType": 5126,
      "count": 50,
      "max": [
        1.0,
        0.0,
        0.0,
        0.0
      ],
      "min": [
        1.0,
        0.0,
        0.0,
        0.0
      ],
      "type": "VEC4"
    }
  ],
  "asset": {
    "extras": {
      "author": "Upgrade titan camera man (https://sketchfab.com/Upgradetitancameraman)",
      "license": "CC-BY-4.0 (http://creativecommons.org/licenses/by/4.0/)",
      "source": "https://sketchfab.com/3d-models/terrorist-3-17b92a589f7c4dfc926cdff3461eaaa5",
      "title": "Terrorist 3"
    },
    "generator": "Sketchfab-15.37.0",
    "version": "2.0"
  },
  "bufferViews": [
    {
      "buffer": 0,
      "byteLength": 25096,
      "byteStride": 8,
      "name": "shortBufferViews",
      "target": 34962
    },
    {
      "buffer": 0,
      "byteLength": 59724,
      "byteOffset": 25096,
      "name": "floatBufferViews",
      "target": 34963
    },
    {
      "buffer": 0,
      "byteLength": 25096,
      "byteOffset": 84820,
      "byteStride": 8,
      "name": "floatBufferViews",
      "target": 34962
    },
    {
      "buffer": 0,
      "byteLength": 75288,
      "byteOffset": 109916,
      "byteStride": 12,
      "name": "floatBufferViews",
      "target": 34962
    },
    {
      "buffer": 0,
      "byteLength": 50192,
      "byteOffset": 185204,
      "byteStride": 16,
      "name": "floatBufferViews",
      "target": 34962
    },
    {
      "buffer": 0,
      "byteLength": 2944,
      "byteOffset": 235396,
      "name": "floatBufferViews"
    }
  ],
  "buffers": [
    {
      "byteLength": 238340,
      "uri": "scene.bin"
    }
  ],
  "images": [
    {
      "uri": "textures/24_mesh0_0.3_0_0.001_baseColor.png"
    },
    {
      "uri": "textures/7_mesh1_1_0_0_baseColor.png"
    }
  ],
  "materials": [
    {
      "doubleSided": true,
      "name": "24_mesh0_0.3_0_0.001",
      "pbrMetallicRoughness": {
        "baseColorTexture": {
          "index": 0
        },
        "metallicFactor": 0.0,
        "roughnessFactor": 0.9577051494623774
      }
    },
    {
      "doubleSided": true,
      "name": "7_mesh1_1_0_0",
      "pbrMetallicRoughness": {
        "baseColorTexture": {
          "index": 1
        },
        "metallicFactor": 0.0,
        "roughnessFactor": 0.9577051494623774
      }
    }
  ],
  "meshes": [
    {
      "name": "24_mesh0_0.3_0_0.001_24_mesh0_0.3_0_0.001_0",
      "primitives": [
        {
          "attributes": {
            "JOINTS_0": 9,
            "NORMAL": 1,
            "POSITION": 0,
            "TEXCOORD_0": 2,
            "WEIGHTS_0": 10
          },
          "indices": 3,
          "material": 0,
          "mode": 4
        }
      ]
    },
    {
      "name": "7_mesh1_1_0_0_7_mesh1_1_0_0_0",
      "primitives": [
        {
          "attributes": {
            "JOINTS_0": 11,
            "NORMAL": 5,
            "POSITION": 4,
            "TEXCOORD_0": 6,
            "WEIGHTS_0": 12
          },
          "indices": 7,
          "material": 1,
          "mode": 4
        }
      ]
    }
  ],
  "nodes": [
    {
      "children": [
        1
      ],
      "matrix": [
        1.0,
        0.0,
        0.0,
        0.0,
        0.0,
        2.220446049250313e-16,
        -1.0,
        0.0,
        0.0,
        1.0,
        2.220446049250313e-16,
        0.0,
        0.0,
        0.0,
        0.0,
        1.0
      ],
      "name": "Sketchfab_model"
    },
    {
      "children": [
        2
      ],
      "matrix": [
        0.009999999776482582,
        0.0,
        0.0,
        0.0,
        0.0,
        0.0,
        0.009999999776482582,
        0.0,
        0.0,
        -0.009999999776482582,
        0.0,
        0.0,
        0.0,
        0.0,
        0.0,
        1.0
      ],
      "name": "Generic_Item.mesh.fbx"
    },
    {
      "children": [
        3
      ],
      "name": "RootNode"
    },
    {
      "children": [
        4,
        5,
        6
      ],
      "name": "Object_3"
    },
    {
      "children": [
        7
      ],
      "name": "_rootJoint"
    },
    {
      "mesh": 0,
      "name": "Object_5",
      "skin": 0
    },
    {
      "mesh": 1,
      "name": "Object_6",
      "skin": 0
    },
    {
      "children": [
        8
      ],
      "name": "root ground_00"
    },
    {
      "children": [
        9,
        13,
        17
      ],
      "name": "root hips_03",
      "translation": [
        0.0,
        1.0897129774093628,
        -0.06365588307380676
      ]
    },
    {
      "children": [
        10
      ],
      "name": "leg left thigh_02",
      "translation": [
        0.10115160048007965,
        -0.08697295188903809,
        0.07752938568592072
      ]
    },
    {
      "children": [
        11
      ],
      "name": "leg left knee_04",
      "translation": [
        0.0024174004793167114,
        -0.46342313289642334,
        -0.024045029655098915
      ]
    },
    {
      "children": [
        12
      ],
      "name": "leg left ankle_05",
      "translation": [
        0.0022382959723472595,
        -0.42806148529052734,
        -0.0369214303791523
      ]
    },
    {
      "name": "leg left toes_06",
      "translation": [
        0.007807701826095581,
        -0.09867727756500244,
        0.14897915720939636
      ]
    },
    {
      "children": [
        14
      ],
      "name": "leg right thigh_01",
      "translation": [
        -0.10115160048007965,
        -0.08697295188903809,
        0.07752938568592072
      ]
    },
    {
      "children": [
        15
      ],
      "name": "leg right knee_07",
      "translation": [
        -0.002418600022792816,
        -0.4634232521057129,
        -0.02404503896832466
      ]
    },
    {
      "children": [
        16
      ],
      "name": "leg right ankle_08",
      "translation": [
        -0.002237096428871155,
        -0.42806118726730347,
        -0.0369214303791523
      ]
    },
    {
      "name": "leg right toes_09",
      "translation": [
        -0.007807902991771698,
        -0.09867720305919647,
        0.14897917211055756
      ]
    },
    {
      "children": [
        18
      ],
      "name": "spine lower_010",
      "translation": [
        3.715463137154984e-08,
        0.10353207588195801,
        -0.008633136749267578
      ]
    },
    {
      "children": [
        19
      ],
      "name": "spine upper_011",
      "translation": [
        3.366239198498988e-08,
        0.09095489978790283,
        -0.010230571031570435
      ]
    },
    {
      "children": [
        20,
        22,
        37
      ],
      "name": "spine upper 1_012",
      "translation": [
        7.708287341756659e-08,
        0.23193299770355225,
        -0.00341024249792099
      ]
    },
    {
      "children": [
        21
      ],
      "name": "head neck lower_013",
      "translation": [
        2.199820414716669e-08,
        0.0847010612487793,
        0.014688700437545776
      ]
    },
    {
      "name": "head neck upper_014",
      "translation": [
        5.8764015875567566e-09,
        0.07844793796539307,
        0.05115266144275665
      ]
    },
    {
      "children": [
        23
      ],
      "name": "arm left shoulder 1_016",
      "translation": [
        0.0503791905939579,
        0.04841601848602295,
        0.034201692789793015
      ]
    },
    {
      "children": [
        24
      ],
      "name": "arm left shoulder 2_017",
      "translation": [
        0.15044096112251282,
        -0.04394996166229248,
        0.0008675307035446167
      ]
    },
    {
      "children": [
        25,
        35,
        36
      ],
      "name": "arm left elbow_018",
      "translation": [
        0.19700101017951965,
        -0.2311040163040161,
        -0.014196958392858505
      ]
    },
    {
      "children": [
        26,
        29,
        32
      ],
      "name": "arm left wrist_019",
      "translation": [
        0.1917678713798523,
        -0.22874903678894043,
        0.003908567130565643
      ]
    },
    {
      "children": [
        27
      ],
      "name": "arm left finger 3a_020",
      "translation": [
        0.07128459215164185,
        -0.07179903984069824,
        0.009314291179180145
      ]
    },
    {
      "children": [
        28
      ],
      "name": "arm left finger 3b_021",
      "translation": [
        0.010028958320617676,
        -0.043275415897369385,
        -0.005056258291006088
      ]
    },
    {
      "name": "arm left finger 3c_022",
      "translation": [
        -0.004209756851196289,
        -0.030637085437774658,
        -0.005659598857164383
      ]
    },
    {
      "children": [
        30
      ],
      "name": "arm left finger 2a_023",
      "translation": [
        0.06720340251922607,
        -0.0757136344909668,
        0.03217975050210953
      ]
    },
    {
      "children": [
        31
      ],
      "name": "arm left finger 2b_024",
      "translation": [
        0.01219242811203003,
        -0.04296773672103882,
        -0.0019176900386810303
      ]
    },
    {
      "name": "arm left finger 2c_025",
      "translation": [
        -0.0014306902885437012,
        -0.027954280376434326,
        -0.005827348679304123
      ]
    },
    {
      "children": [
        33
      ],
      "name": "arm left finger 1a_026",
      "translation": [
        0.006008744239807129,
        -0.02482593059539795,
        0.032390713691711426
      ]
    },
    {
      "children": [
        34
      ],
      "name": "arm left finger 1b_027",
      "translation": [
        -0.0016510486602783203,
        -0.039267539978027344,
        0.024915721267461777
      ]
    },
    {
      "name": "arm left finger 1c_028",
      "translation": [
        0.0017693042755126953,
        -0.02936786413192749,
        0.010919187217950821
      ]
    },
    {
      "name": "arm left fix wrist_029",
      "translation": [
        0.19176888465881348,
        -0.22874903678894043,
        0.0039086900651454926
      ]
    },
    {
      "name": "arm left fix forearm 1_030",
      "translation": [
        0.09588438272476196,
        -0.11437404155731201,
        0.0019543617963790894
      ]
    },
    {
      "children": [
        38
      ],
      "name": "arm right shoulder 1_031",
      "translation": [
        -0.0503791905939579,
        0.04841601848602295,
        0.034201644361019135
      ]
    },
    {
      "children": [
        39
      ],
      "name": "arm right shoulder 2_015",
      "translation": [
        -0.15044106543064117,
        -0.04394996166229248,
        0.0008674301207065582
      ]
    },
    {
      "children": [
        40,
        50,
        51
      ],
      "name": "arm right elbow_032",
      "translation": [
        -0.19683809578418732,
        -0.23124098777770996,
        -0.014223698526620865
      ]
    },
    {
      "children": [
        41,
        44,
        47
      ],
      "name": "arm right wrist_033",
      "translation": [
        -0.19193169474601746,
        -0.22861206531524658,
        0.00393526628613472
      ]
    },
    {
      "children": [
        42
      ],
      "name": "arm right finger 3a_034",
      "translation": [
        -0.07147860527038574,
        -0.07162994146347046,
        0.009120400995016098
      ]
    },
    {
      "children": [
        43
      ],
      "name": "arm right finger 3b_035",
      "translation": [
        -0.009959518909454346,
        -0.04334449768066406,
        -0.004576500505208969
      ]
    },
    {
      "name": "arm right finger 3c_036",
      "translation": [
        0.004294395446777344,
        -0.03072112798690796,
        -0.005115538835525513
      ]
    },
    {
      "children": [
        45
      ],
      "name": "arm right finger 2a_037",
      "translation": [
        -0.06781208515167236,
        -0.07519668340682983,
        0.03211268037557602
      ]
    },
    {
      "children": [
        46
      ],
      "name": "arm right finger 2b_038",
      "translation": [
        -0.01217883825302124,
        -0.04298865795135498,
        -0.0014824792742729187
      ]
    },
    {
      "name": "arm right finger 2c_039",
      "translation": [
        0.0015206336975097656,
        -0.028040528297424316,
        -0.005374319851398468
      ]
    },
    {
      "children": [
        48
      ],
      "name": "arm right finger 1a_040",
      "translation": [
        -0.006603717803955078,
        -0.024327993392944336,
        0.032651402056217194
      ]
    },
    {
      "children": [
        49
      ],
      "name": "arm right finger 1b_041",
      "translation": [
        0.0011808276176452637,
        -0.03888368606567383,
        0.025536496192216873
      ]
    },
    {
      "name": "arm right finger 1c_042",
      "translation": [
        -0.001981496810913086,
        -0.02919769287109375,
        0.011331374756991863
      ]
    },
    {
      "name": "arm right fix wrist_043",
      "translation": [
        -0.19193169474601746,
        -0.22861206531524658,
        0.00393526628613472
      ]
    },
    {
      "name": "arm right fix forearm 1_044",
      "translation": [
        -0.09596580266952515,
        -0.11430597305297852,
        0.0019676610827445984
      ]
    }
  ],
  "samplers": [
    {
      "magFilter": 9729,
      "minFilter": 9987,
      "wrapS": 10497,
      "wrapT": 10497
    }
  ],
  "scene": 0,
  "scenes": [
    {
      "name": "Sketchfab_Scene",
      "nodes": [
        0
      ]
    }
  ],
  "skins": [
    {
      "inverseBindMatrices": 8,
      "joints": [
        4,
        7,
        8,
        9,
        10,
        11,
        12,
        13,
        14,
        15,
        16,
        17,
        18,
        19,
        20,
        21,
        22,
        23,
        24,
        25,
        26,
        27,
        28,
        29,
        30,
        31,
        32,
        33,
        34,
        35,
        36,
        37,
        38,
        39,
        40,
        41,
        42,
        43,
        44,
        45,
        46,
        47,
        48,
        49,
        50,
        51
      ],
      "skeleton": 4
    }
  ],
  "textures": [
    {
      "sampler": 0,
      "source": 0
    },
    {
      "sampler": 0,
      "source": 1
    }
  ]
}
