{
  "accessors": [
    {
      "bufferView": 2,
      "componentType": 5126,
      "count": 912,
      "max": [
        21.637359619140625,
        37.27438735961914,
        -11.265462875366211
      ],
      "min": [
        19.611299514770508,
        36.563087463378906,
        -13.871688842773438
      ],
      "type": "VEC3"
    },
    {
      "bufferView": 2,
      "byteOffset": 10944,
      "componentType": 5126,
      "count": 912,
      "max": [
        0.9999927878379822,
        0.9872040152549744,
        0.9950834512710571
      ],
      "min": [
        -0.9841587543487549,
        -0.9998064637184143,
        -0.9968722462654114
      ],
      "type": "VEC3"
    },
    {
      "bufferView": 1,
      "componentType": 5126,
      "count": 912,
      "max": [
        0.9927470088005066,
        0.9980639815330505
      ],
      "min": [
        0.005435999948531389,
        0.00795000046491623
      ],
      "type": "VEC2"
    },
    {
      "bufferView": 0,
      "componentType": 5125,
      "count": 3798,
      "type": "SCALAR"
    }
  ],
  "asset": {
    "extras": {
      "author": "themultiplayer1 (https://sketchfab.com/themultiplayer1)",
      "license": "CC-BY-4.0 (http://creativecommons.org/licenses/by/4.0/)",
      "source": "https://sketchfab.com/3d-models/dead-frontier-male-zombie-fat2-2488dcd730be42878a6d801687ff8631",
      "title": "Dead frontier Male Zombie Fat2"
    },
    "generator": "Sketchfab-12.67.0",
    "version": "2.0"
  },
  "bufferViews": [
    {
      "buffer": 0,
      "byteLength": 15192,
      "name": "floatBufferViews",
      "target": 34963
    },
    {
      "buffer": 0,
      "byteLength": 7296,
      "byteOffset": 15192,
      "byteStride": 8,
      "name": "floatBufferViews",
      "target": 34962
    },
    {
      "buffer": 0,
      "byteLength": 21888,
      "byteOffset": 22488,
      "byteStride": 12,
      "name": "floatBufferViews",
      "target": 34962
    }
  ],
  "buffers": [
    {
      "byteLength": 44376,
      "uri": "scene.bin"
    }
  ],
  "images": [
    {
      "uri": "textures/lambert4SG_baseColor.png"
    }
  ],
  "materials": [
    {
      "doubleSided": true,
      "name": "lambert4SG",
      "pbrMetallicRoughness": {
        "baseColorTexture": {
          "index": 0
        },
        "metallicFactor": 0.0,
        "roughnessFactor": 0.6
      }
    }
  ],
  "meshes": [
    {
      "name": "Object_0",
      "primitives": [
        {
          "attributes": {
            "NORMAL": 1,
            "POSITION": 0,
            "TEXCOORD_0": 2
          },
          "indices": 3,
          "material": 0,
          "mode": 4
        }
      ]
    }
  ],
  "nodes": [
    {
      "children": [
        1
      ],
      "matrix": [
        1.0,
        0.0,
        0.0,
        0.0,
        0.0,
        2.220446049250313e-16,
        -1.0,
        0.0,
        0.0,
        1.0,
        2.220446049250313e-16,
        0.0,
        0.0,
        0.0,
        0.0,
        1.0
      ],
      "name": "Sketchfab_model"
    },
    {
      "children": [
        2
      ],
      "name": "032e36f8573141b28630dcc40a6ac864.obj.cleaner.materialmerger.gles"
    },
    {
      "mesh": 0,
      "name": "Object_2"
    }
  ],
  "samplers": [
    {
      "magFilter": 9729,
      "minFilter": 9987,
      "wrapS": 10497,
      "wrapT": 10497
    }
  ],
  "scene": 0,
  "scenes": [
    {
      "name": "Sketchfab_Scene",
      "nodes": [
        0
      ]
    }
  ],
  "textures": [
    {
      "sampler": 0,
      "source": 0
    }
  ]
}
