{
  "accessors": [
    {
      "bufferView": 2,
      "componentType": 5126,
      "count": 315,
      "max": [
        105.57989501953125,
        9.92733097076416,
        163.85101318359375
      ],
      "min": [
        -105.57989501953125,
        -9.92733097076416,
        -5.597311019897461
      ],
      "type": "VEC3"
    },
    {
      "bufferView": 2,
      "byteOffset": 3780,
      "componentType": 5126,
      "count": 315,
      "max": [
        0.999984860420227,
        0.9999845623970032,
        0.9999229907989502
      ],
      "min": [
        -0.9999845623970032,
        -0.9999922513961792,
        -0.9999846816062927
      ],
      "type": "VEC3"
    },
    {
      "bufferView": 1,
      "componentType": 5126,
      "count": 315,
      "max": [
        0.9951171875,
        0.9983329772949219
      ],
      "min": [
        -0.00231170654296875,
        0.0068359375
      ],
      "type": "VEC2"
    },
    {
      "bufferView": 0,
      "componentType": 5125,
      "count": 1122,
      "type": "SCALAR"
    }
  ],
  "asset": {
    "extras": {
      "author": "Nelamon (https://sketchfab.com/nelamon)",
      "license": "CC-BY-NC-4.0 (http://creativecommons.org/licenses/by-nc/4.0/)",
      "source": "https://sketchfab.com/3d-models/metal-fence-vurvur-house-5-48fb4206d4c34c548b2e19960aaeddd3",
      "title": "metal fence - Vurvur House 5"
    },
    "generator": "Sketchfab-0.10.0",
    "version": "2.0"
  },
  "bufferViews": [
    {
      "buffer": 0,
      "byteLength": 4488,
      "name": "floatBufferViews",
      "target": 34963
    },
    {
      "buffer": 0,
      "byteLength": 2520,
      "byteOffset": 4488,
      "byteStride": 8,
      "name": "floatBufferViews",
      "target": 34962
    },
    {
      "buffer": 0,
      "byteLength": 7560,
      "byteOffset": 7008,
      "byteStride": 12,
      "name": "floatBufferViews",
      "target": 34962
    }
  ],
  "buffers": [
    {
      "byteLength": 14568,
      "uri": "scene.bin"
    }
  ],
  "images": [
    {
      "uri": "textures/Valla2_baseColor.png"
    },
    {
      "uri": "textures/Valla2_metallicRoughness.png"
    }
  ],
  "materials": [
    {
      "doubleSided": true,
      "name": "Valla2",
      "pbrMetallicRoughness": {
        "baseColorTexture": {
          "index": 0
        },
        "metallicRoughnessTexture": {
          "index": 1
        }
      }
    }
  ],
  "meshes": [
    {
      "name": "valla.001_Valla2_0",
      "primitives": [
        {
          "attributes": {
            "NORMAL": 1,
            "POSITION": 0,
            "TEXCOORD_0": 2
          },
          "indices": 3,
          "material": 0,
          "mode": 4
        }
      ]
    }
  ],
  "nodes": [
    {
      "children": [
        1
      ],
      "matrix": [
        1.0,
        0.0,
        0.0,
        0.0,
        0.0,
        2.220446049250313e-16,
        -1.0,
        0.0,
        0.0,
        1.0,
        2.220446049250313e-16,
        0.0,
        0.0,
        0.0,
        0.0,
        1.0
      ],
      "name": "Sketchfab_model"
    },
    {
      "children": [
        2
      ],
      "matrix": [
        0.009999999776482582,
        0.0,
        0.0,
        0.0,
        0.0,
        0.0,
        0.009999999776482582,
        0.0,
        0.0,
        -0.009999999776482582,
        0.0,
        0.0,
        0.0,
        0.0,
        0.0,
        1.0
      ],
      "name": "dd9af1f7710f4634b838de997a505cc2.fbx"
    },
    {
      "children": [
        3
      ],
      "name": "RootNode"
    },
    {
      "children": [
        4
      ],
      "matrix": [
        0.26649951934814453,
        0.0,
        0.0,
        0.0,
        0.0,
        -4.341828274979623e-08,
        -0.26649951934814103,
        0.0,
        0.0,
        0.26649951934814103,
        -4.341828274979623e-08,
        0.0,
        0.0,
        0.0,
        0.0,
        1.0
      ],
      "name": "valla"
    },
    {
      "children": [
        5
      ],
      "matrix": [
        1.0000001192092896,
        0.0,
        0.0,
        0.0,
        0.0,
        1.0000001192092896,
        -2.646977960169688e-23,
        0.0,
        0.0,
        2.646977960169688e-23,
        1.0000001192092896,
        0.0,
        0.0,
        0.0,
        0.0,
        1.0
      ],
      "name": "valla.001"
    },
    {
      "mesh": 0,
      "name": "valla.001_Valla2_0"
    }
  ],
  "samplers": [
    {
      "magFilter": 9729,
      "minFilter": 9987,
      "wrapS": 10497,
      "wrapT": 10497
    }
  ],
  "scene": 0,
  "scenes": [
    {
      "name": "Sketchfab_Scene",
      "nodes": [
        0
      ]
    }
  ],
  "textures": [
    {
      "sampler": 0,
      "source": 0
    },
    {
      "sampler": 0,
      "source": 1
    }
  ]
}
