{
  "asset": {
    "version": "2.0",
    "generator": "TurboSquid Stem Converter v1.0.0"
  },
  "accessors": [
    {
      "bufferView": 0,
      "byteOffset": 0,
      "componentType": 5126,
      "count": 5375,
      "type": "VEC3",
      "max": [
        55.61880111694336,
        11.9766206741333,
        3.264660596847534
      ],
      "min": [
        -55.61880111694336,
        -11.9766206741333,
        -3.264660596847534
      ]
    },
    {
      "bufferView": 1,
      "byteOffset": 0,
      "componentType": 5126,
      "count": 5375,
      "type": "VEC3",
      "max": [
        1.0,
        1.0,
        1.0
      ],
      "min": [
        -1.0,
        -1.0,
        -1.0
      ]
    },
    {
      "bufferView": 2,
      "byteOffset": 0,
      "componentType": 5126,
      "count": 5375,
      "type": "VEC2",
      "max": [
        0.9995822310447693,
        0.9997372627258301
      ],
      "min": [
        0.0006758719682693481,
        0.0038142800331115723
      ]
    },
    {
      "bufferView": 3,
      "byteOffset": 0,
      "componentType": 5123,
      "count": 16143,
      "type": "SCALAR",
      "max": [
        5374.0
      ],
      "min": [
        0.0
      ]
    }
  ],
  "buffers": [
    {
      "byteLength": 204286,
      "uri": "Mauser_98K.bin"
    }
  ],
  "bufferViews": [
    {
      "buffer": 0,
      "byteOffset": 0,
      "byteLength": 64500,
      "target": 34962
    },
    {
      "buffer": 0,
      "byteOffset": 64500,
      "byteLength": 64500,
      "target": 34962
    },
    {
      "buffer": 0,
      "byteOffset": 129000,
      "byteLength": 43000,
      "target": 34962
    },
    {
      "buffer": 0,
      "byteOffset": 172000,
      "byteLength": 32286,
      "target": 34963
    }
  ],
  "materials": [
    {
      "name": "Mauser98K_Dielectric",
      "pbrMetallicRoughness": {
        "baseColorTexture": {
          "index": 0
        },
        "metallicRoughnessTexture": {
          "index": 1
        }
      },
      "alphaMode": "OPAQUE",
      "occlusionTexture": {
        "index": 1
      },
      "normalTexture": {
        "index": 2
      }
    }
  ],
  "meshes": [
    {
      "name": "Mauser_98K",
      "primitives": [
        {
          "mode": 4,
          "material": 0,
          "indices": 3,
          "attributes": {
            "POSITION": 0,
            "NORMAL": 1,
            "TEXCOORD_0": 2
          }
        }
      ]
    }
  ],
  "nodes": [
    {
      "children": [
        1
      ]
    },
    {
      "name": "node",
      "matrix": [
        -4.371138828673793e-08,
        0.0,
        -1.0,
        0.0,
        0.0,
        1.0,
        0.0,
        0.0,
        1.0,
        0.0,
        -4.371138828673793e-08,
        0.0,
        0.0,
        12.203974723815918,
        0.0,
        1.0
      ],
      "children": [
        2
      ]
    },
    {
      "name": "Mauser_98K",
      "mesh": 0
    }
  ],
  "scenes": [
    {
      "nodes": [
        0
      ]
    }
  ],
  "scene": 0,
  "samplers": [
    {
      "magFilter": 9729,
      "minFilter": 9987,
      "wrapS": 10497,
      "wrapT": 10497
    }
  ],
  "images": [
    {
      "uri": "textures/baseColor.jpg"
    },
    {
      "uri": "textures/occlusionRoughnessMetallic.jpg"
    },
    {
      "uri": "textures/normal.png"
    }
  ],
  "textures": [
    {
      "sampler": 0,
      "source": 0
    },
    {
      "sampler": 0,
      "source": 1
    },
    {
      "sampler": 0,
      "source": 2
    }
  ]
}