{
  "accessors": [
    {
      "bufferView": 3,
      "componentType": 5126,
      "count": 14425,
      "max": [
        1.8798826932907104,
        15.669923782348633,
        13.16210651397705
      ],
      "min": [
        -1.8803712129592896,
        -0.03808612748980522,
        -56.91851806640625
      ],
      "type": "VEC3"
    },
    {
      "bufferView": 3,
      "byteOffset": 173100,
      "componentType": 5126,
      "count": 14425,
      "max": [
        1.0,
        1.0,
        1.0
      ],
      "min": [
        -0.9999687671661377,
        -1.0,
        -0.999968409538269
      ],
      "type": "VEC3"
    },
    {
      "bufferView": 4,
      "componentType": 5126,
      "count": 14425,
      "max": [
        1.0,
        0.9997871518135071,
        1.0,
        1.0
      ],
      "min": [
        -1.0,
        -0.9994688630104065,
        -1.0,
        -1.0
      ],
      "type": "VEC4"
    },
    {
      "bufferView": 4,
      "byteOffset": 230800,
      "componentType": 5126,
      "count": 14425,
      "max": [
        0.0,
        0.0,
        0.0,
        0.0
      ],
      "min": [
        0.0,
        0.0,
        0.0,
        0.0
      ],
      "type": "VEC4"
    },
    {
      "bufferView": 2,
      "componentType": 5126,
      "count": 14425,
      "max": [
        0.995849609375,
        0.999267578125
      ],
      "min": [
        0.002685546875,
        0.002685546875
      ],
      "type": "VEC2"
    },
    {
      "bufferView": 2,
      "byteOffset": 115400,
      "componentType": 5126,
      "count": 14425,
      "max": [
        -15.999267578125,
        16.999267578125
      ],
      "min": [
        -15.999267578125,
        16.999267578125
      ],
      "type": "VEC2"
    },
    {
      "bufferView": 1,
      "componentType": 5125,
      "count": 75882,
      "type": "SCALAR"
    },
    {
      "bufferView": 5,
      "componentType": 5126,
      "count": 149,
      "max": [
        99.99999237060547,
        1.0,
        0.9917657375335693,
        0.0,
        0.9861815571784973,
        99.99999237060547,
        1.0000230073928833,
        0.0,
        0.9938375949859619,
        0.9999996423721313,
        99.99998474121094,
        0.0,
        17.02702522277832,
        11.287138938903809,
        16.166990280151367,
        1.0
      ],
      "min": [
        -0.9999999403953552,
        -0.9842187762260437,
        -0.9917656183242798,
        0.0,
        -0.9921389818191528,
        -0.9972255825996399,
        -0.9906557202339172,
        0.0,
        -0.9938375949859619,
        -1.000001072883606,
        -0.7796676754951477,
        0.0,
        -17.027055740356445,
        -55.46866226196289,
        -17.713274002075195,
        1.0
      ],
      "type": "MAT4"
    },
    {
      "bufferView": 0,
      "componentType": 5123,
      "count": 14425,
      "type": "VEC4"
    },
    {
      "bufferView": 4,
      "byteOffset": 461600,
      "componentType": 5126,
      "count": 14425,
      "max": [
        1.0,
        0.49803921580314636,
        0.30980393290519714,
        0.21176469326019287
      ],
      "min": [
        0.29019609093666077,
        0.0,
        0.0,
        0.0
      ],
      "type": "VEC4"
    }
  ],
  "asset": {
    "extras": {
      "author": "sharksly (https://sketchfab.com/sharksly)",
      "license": "CC-BY-4.0 (http://creativecommons.org/licenses/by/4.0/)",
      "source": "https://sketchfab.com/3d-models/titanosaurus-b-b7f4de6663b745a38b40e275000ac8d5",
      "title": "Titanosaurus B"
    },
    "generator": "Sketchfab-17.15.0",
    "version": "2.0"
  },
  "bufferViews": [
    {
      "buffer": 0,
      "byteLength": 115400,
      "byteStride": 8,
      "name": "shortBufferViews",
      "target": 34962
    },
    {
      "buffer": 0,
      "byteLength": 303528,
      "byteOffset": 115400,
      "name": "floatBufferViews",
      "target": 34963
    },
    {
      "buffer": 0,
      "byteLength": 230800,
      "byteOffset": 418928,
      "byteStride": 8,
      "name": "floatBufferViews",
      "target": 34962
    },
    {
      "buffer": 0,
      "byteLength": 346200,
      "byteOffset": 649728,
      "byteStride": 12,
      "name": "floatBufferViews",
      "target": 34962
    },
    {
      "buffer": 0,
      "byteLength": 692400,
      "byteOffset": 995928,
      "byteStride": 16,
      "name": "floatBufferViews",
      "target": 34962
    },
    {
      "buffer": 0,
      "byteLength": 9536,
      "byteOffset": 1688328,
      "name": "floatBufferViews"
    }
  ],
  "buffers": [
    {
      "byteLength": 1697864,
      "uri": "scene.bin"
    }
  ],
  "extensionsUsed": [
    "KHR_materials_specular"
  ],
  "images": [
    {
      "uri": "textures/Titanosaurus_baseColor.png"
    },
    {
      "uri": "textures/Titanosaurus_metallicRoughness.png"
    },
    {
      "uri": "textures/Titanosaurus_normal.png"
    }
  ],
  "materials": [
    {
      "doubleSided": true,
      "emissiveFactor": [
        1.0,
        1.0,
        1.0
      ],
      "emissiveTexture": {
        "index": 0
      },
      "extensions": {
        "KHR_materials_specular": {
          "specularColorFactor": [
            1.0,
            1.0,
            1.0
          ],
          "specularFactor": 0.0
        }
      },
      "name": "Titanosaurus",
      "normalTexture": {
        "index": 2
      },
      "occlusionTexture": {
        "index": 1
      },
      "pbrMetallicRoughness": {
        "baseColorTexture": {
          "index": 0
        },
        "metallicFactor": 0.0,
        "metallicRoughnessTexture": {
          "index": 1
        }
      }
    }
  ],
  "meshes": [
    {
      "name": "Titanosaurus_Titanosaurus_0",
      "primitives": [
        {
          "attributes": {
            "COLOR_0": 3,
            "JOINTS_0": 8,
            "NORMAL": 1,
            "POSITION": 0,
            "TANGENT": 2,
            "TEXCOORD_0": 4,
            "TEXCOORD_1": 5,
            "TEXCOORD_2": 4,
            "TEXCOORD_3": 4,
            "WEIGHTS_0": 9
          },
          "indices": 6,
          "material": 0,
          "mode": 4
        }
      ]
    }
  ],
  "nodes": [
    {
      "children": [
        1
      ],
      "matrix": [
        0.9999262094497681,
        -2.697790217632749e-18,
        0.012149767018854618,
        0.0,
        0.012149767018854618,
        2.2202822013145786e-16,
        -0.9999262094497681,
        0.0,
        0.0,
        1.0,
        2.220446049250313e-16,
        0.0,
        0.0,
        0.0,
        0.0,
        1.0
      ],
      "name": "Sketchfab_model"
    },
    {
      "children": [
        2
      ],
      "matrix": [
        0.009999999776482582,
        0.0,
        0.0,
        0.0,
        0.0,
        0.0,
        0.009999999776482582,
        0.0,
        0.0,
        -0.009999999776482582,
        0.0,
        0.0,
        0.0,
        0.0,
        0.0,
        1.0
      ],
      "name": "TItanosaurus.fbx"
    },
    {
      "children": [
        3
      ],
      "name": "RootNode"
    },
    {
      "children": [
        4
      ],
      "matrix": [
        100.0,
        0.0,
        0.0,
        0.0,
        0.0,
        -1.629206793918314e-05,
        -99.99999999999868,
        0.0,
        0.0,
        99.99999999999868,
        -1.629206793918314e-05,
        0.0,
        0.0,
        0.0,
        0.0,
        1.0
      ],
      "name": "titanosaurus_male_armature"
    },
    {
      "children": [
        5,
        155,
        154
      ],
      "name": "Object_4"
    },
    {
      "children": [
        6
      ],
      "name": "_rootJoint"
    },
    {
      "children": [
        7,
        48,
        49,
        50,
        51,
        62,
        73
      ],
      "name": "def_c_hips_joint_02",
      "rotation": [
        -3.351549793251252e-08,
        0.1666623204946518,
        0.9860141277313232,
        -7.090379483543074e-08
      ],
      "scale": [
        0.9999999403953552,
        1.0,
        1.0000005960464478
      ],
      "translation": [
        0.0,
        2.6406123638153076,
        5.17847204208374
      ]
    },
    {
      "children": [
        8,
        40,
        41,
        42,
        43,
        44,
        45,
        46,
        47
      ],
      "name": "def_c_tail1_joint_03",
      "rotation": [
        -5.2779633108457347e-08,
        0.025576073676347733,
        0.9996728897094727,
        1.961212348078334e-07
      ],
      "scale": [
        0.9999999403953552,
        0.9999998807907104,
        0.99997478723526
      ],
      "translation": [
        -4.1190000388269254e-07,
        -0.36224299669265747,
        0.011977314949035645
      ]
    },
    {
      "children": [
        9,
        33,
        34,
        35,
        36,
        37,
        38,
        39
      ],
      "name": "def_c_tail2_joint_04",
      "rotation": [
        0.016016045585274696,
        -1.057823961758686e-08,
        4.604680525766014e-10,
        0.9998717308044434
      ],
      "scale": [
        1.0000001192092896,
        1.0000001192092896,
        1.0000001192092896
      ],
      "translation": [
        1.1368683772161603e-13,
        4.033510684967041,
        1.1920928244535389e-07
      ]
    },
    {
      "children": [
        10,
        31,
        32
      ],
      "name": "def_c_tail3_joint_05",
      "rotation": [
        0.04044286534190178,
        -2.882459382291813e-09,
        6.18057161005936e-10,
        0.999181866645813
      ],
      "scale": [
        0.9999999403953552,
        0.9999998807907104,
        1.000000238418579
      ],
      "translation": [
        1.4210854715202004e-14,
        3.025752067565918,
        -5.3290705182007514e-14
      ]
    },
    {
      "children": [
        11
      ],
      "name": "def_c_tail4_joint_06",
      "rotation": [
        0.03748902305960655,
        -2.70893507625658e-09,
        3.6316749607578913e-10,
        0.9992971420288086
      ],
      "scale": [
        1.0000001192092896,
        1.0,
        1.0
      ],
      "translation": [
        -4.263256414560601e-14,
        2.819542646408081,
        -1.021405182655144e-13
      ]
    },
    {
      "children": [
        12
      ],
      "name": "def_c_tail5_joint_07",
      "rotation": [
        0.018680237233638763,
        -1.3585661484682987e-09,
        1.0523376614557378e-10,
        0.9998255372047424
      ],
      "scale": [
        0.9999999403953552,
        0.9999997615814209,
        0.9999998807907104
      ],
      "translation": [
        1.2789769243681803e-13,
        2.3800058364868164,
        -2.384187496318191e-07
      ]
    },
    {
      "children": [
        13
      ],
      "name": "def_c_tail6_joint_08",
      "rotation": [
        0.012209638021886349,
        -8.897581005307131e-10,
        4.0901004805249386e-11,
        0.9999255537986755
      ],
      "scale": [
        1.0000001192092896,
        1.0,
        0.9999997615814209
      ],
      "translation": [
        4.547473508864641e-13,
        2.380002975463867,
        -2.042810365310288e-13
      ]
    },
    {
      "children": [
        14
      ],
      "name": "def_c_tail7_joint_09",
      "rotation": [
        0.008494663052260876,
        -6.194976198692359e-10,
        1.592181594900488e-11,
        0.9999639391899109
      ],
      "scale": [
        0.9999999403953552,
        0.9999998211860657,
        0.9999999403953552
      ],
      "translation": [
        1.4210854715202004e-13,
        2.3800129890441895,
        -5.960489346534814e-08
      ]
    },
    {
      "children": [
        15
      ],
      "name": "def_c_tail8_joint_010",
      "rotation": [
        0.004113039467483759,
        -3.0007474283166857e-10,
        4.011339004017511e-12,
        0.9999915361404419
      ],
      "scale": [
        1.0000001192092896,
        0.9999998807907104,
        0.9999997019767761
      ],
      "translation": [
        1.7053025658242404e-13,
        2.380005359649658,
        2.980203461788733e-08
      ]
    },
    {
      "children": [
        16
      ],
      "name": "def_c_tail9_joint_011",
      "rotation": [
        0.003113195300102234,
        -2.2716141467871154e-10,
        7.212460338169857e-13,
        0.9999951720237732
      ],
      "scale": [
        0.9999999403953552,
        1.0,
        1.000000238418579
      ],
      "translation": [
        9.521272659185342e-13,
        2.3799989223480225,
        -4.470380687848774e-08
      ]
    },
    {
      "children": [
        17
      ],
      "name": "def_c_tail10_joint_012",
      "rotation": [
        -0.0021520950831472874,
        1.570426705344019e-10,
        -1.2610770175509878e-13,
        0.9999976754188538
      ],
      "scale": [
        1.0000001192092896,
        0.9999999403953552,
        0.9999998807907104
      ],
      "translation": [
        4.263256414560601e-13,
        2.3800127506256104,
        -1.0430848362830147e-07
      ]
    },
    {
      "children": [
        18
      ],
      "name": "def_c_tail11_joint_013",
      "rotation": [
        0.0023234954569488764,
        -1.6953322079515942e-10,
        4.905741069448355e-13,
        0.9999973177909851
      ],
      "scale": [
        0.9999999403953552,
        1.000000238418579,
        1.000000238418579
      ],
      "translation": [
        9.947598300641403e-14,
        2.3800101280212402,
        3.725286319422594e-07
      ]
    },
    {
      "children": [
        19
      ],
      "name": "def_c_tail12_joint_014",
      "rotation": [
        -0.0006042626919224858,
        4.4073956290135996e-11,
        7.763931777213587e-14,
        0.9999998211860657
      ],
      "scale": [
        1.0000001192092896,
        0.9999998211860657,
        0.9999997615814209
      ],
      "translation": [
        2.8421709430404007e-13,
        2.380009889602661,
        -4.192202140984591e-13
      ]
    },
    {
      "children": [
        20
      ],
      "name": "def_c_tail13_joint_015",
      "rotation": [
        -0.00037914328277111053,
        2.767571415096537e-11,
        3.9029901272719103e-13,
        0.9999999403953552
      ],
      "scale": [
        0.9999999403953552,
        1.0,
        1.0
      ],
      "translation": [
        -1.5631940186722204e-13,
        2.380028009414673,
        1.9371464077266864e-07
      ]
    },
    {
      "children": [
        21
      ],
      "name": "def_c_tail14_joint_016",
      "rotation": [
        0.0015201953938230872,
        -1.1087851470303889e-10,
        -5.846546662600927e-13,
        0.9999988675117493
      ],
      "scale": [
        1.0000001192092896,
        0.9999998211860657,
        0.9999997615814209
      ],
      "translation": [
        -2.842170943040401e-14,
        2.1000218391418457,
        -1.9371556447822513e-07
      ]
    },
    {
      "children": [
        22
      ],
      "name": "def_c_tail15_joint_017",
      "rotation": [
        2.920807310147211e-05,
        -2.186424652439456e-12,
        2.894420543086279e-13,
        1.0
      ],
      "scale": [
        0.9999999403953552,
        1.000000238418579,
        1.000000238418579
      ],
      "translation": [
        9.947598300641403e-14,
        2.000009059906006,
        5.476171622831316e-07
      ]
    },
    {
      "children": [
        23
      ],
      "name": "def_c_tail16_joint_018",
      "rotation": [
        0.000685524835716933,
        -4.9977671306988825e-11,
        -4.925327723795392e-13,
        0.9999997615814209
      ],
      "scale": [
        1.0000001192092896,
        0.9999999403953552,
        1.0
      ],
      "translation": [
        2.2737367544323206e-13,
        2.0000152587890625,
        1.5646166673377593e-07
      ]
    },
    {
      "children": [
        24
      ],
      "name": "def_c_tail17_joint_019",
      "rotation": [
        0.0017485279822722077,
        -1.2759954204355495e-10,
        1.4900736623312677e-13,
        0.9999985694885254
      ],
      "scale": [
        0.9999999403953552,
        1.0000001192092896,
        0.9999999403953552
      ],
      "translation": [
        -2.2737367544323206e-13,
        2.000018835067749,
        2.2444818625899643e-07
      ]
    },
    {
      "children": [
        25
      ],
      "name": "def_c_tail18_joint_020",
      "rotation": [
        -0.0018159414175897837,
        1.3247818120287747e-10,
        3.878040195828131e-13,
        0.9999984502792358
      ],
      "scale": [
        1.0000001192092896,
        0.9999998807907104,
        0.9999999403953552
      ],
      "translation": [
        9.094947017729282e-13,
        2.0000205039978027,
        2.980226270210551e-07
      ]
    },
    {
      "children": [
        26
      ],
      "name": "def_c_tail19_joint_021",
      "rotation": [
        2.3820027195142757e-07,
        1.3882991978242387e-14,
        -2.0936572787955132e-13,
        1.0
      ],
      "scale": [
        0.9999999403953552,
        1.0000001192092896,
        1.0000001192092896
      ],
      "translation": [
        3.836930773104541e-13,
        2.0000085830688477,
        4.1630059399722086e-07
      ]
    },
    {
      "children": [
        27
      ],
      "name": "def_c_tail20_joint_022",
      "rotation": [
        -2.385495463386178e-07,
        -1.3965824177187332e-14,
        1.4999676847815557e-13,
        1.0
      ],
      "scale": [
        1.0000001192092896,
        1.0,
        1.0
      ],
      "translation": [
        3.552713678800501e-13,
        2.0000171661376953,
        4.4051495251551387e-07
      ]
    },
    {
      "children": [
        28
      ],
      "name": "def_c_tail21_joint_023",
      "rotation": [
        -0.0019301149295642972,
        1.4085298205568364e-10,
        -4.660293960630224e-13,
        0.999998152256012
      ],
      "scale": [
        0.9999999403953552,
        0.9999999403953552,
        0.9999998807907104
      ],
      "translation": [
        7.815970093361102e-13,
        2.0000200271606445,
        2.8544971542032727e-07
      ]
    },
    {
      "children": [
        29
      ],
      "name": "def_c_tail22_joint_024",
      "rotation": [
        -0.003693296341225505,
        2.6941532338398133e-10,
        -1.9906916826767374e-12,
        0.9999932050704956
      ],
      "scale": [
        1.0000001192092896,
        1.0,
        0.9999998807907104
      ],
      "translation": [
        9.237055564881302e-13,
        1.80000901222229,
        1.4901092981745023e-07
      ]
    },
    {
      "children": [
        30
      ],
      "name": "def_c_tail23_joint_025",
      "rotation": [
        0.004998523276299238,
        -3.646556390179967e-10,
        2.2754064257779483e-12,
        0.9999876022338867
      ],
      "scale": [
        0.9999999403953552,
        1.0000001192092896,
        1.000000238418579
      ],
      "translation": [
        8.810729923425242e-13,
        1.8000048398971558,
        1.7881325220514555e-07
      ]
    },
    {
      "name": "def_c_tail24_joint_026",
      "rotation": [
        -3.317545633763075e-07,
        -1.3950645346772535e-14,
        2.662939313502477e-13,
        1.0
      ],
      "scale": [
        1.0000001192092896,
        0.9999999403953552,
        1.0
      ],
      "translation": [
        5.684341886080802e-14,
        1.8000261783599854,
        -1.7508936878130044e-07
      ]
    },
    {
      "name": "def_c_tailSail19_joint_027",
      "rotation": [
        0.2838551998138428,
        2.55772523161113e-08,
        -8.7866887099608e-09,
        0.9588671326637268
      ],
      "scale": [
        1.0000001192092896,
        0.9999998807907104,
        1.0000001192092896
      ],
      "translation": [
        -1.6694565374564263e-07,
        0.17192065715789795,
        0.5910862684249878
      ]
    },
    {
      "name": "def_c_tailSail20_joint_028",
      "rotation": [
        0.44206878542900085,
        1.5803994557472834e-08,
        -2.223559292247046e-08,
        0.8969811797142029
      ],
      "scale": [
        1.0000001192092896,
        1.0,
        1.0000001192092896
      ],
      "translation": [
        -1.7398792806488927e-07,
        0.5416234731674194,
        0.5639448165893555
      ]
    },
    {
      "name": "def_c_tailSail12_joint_029",
      "rotation": [
        0.23742146790027618,
        2.8930118745051914e-08,
        -3.8516909106611763e-10,
        0.9714067578315735
      ],
      "scale": [
        0.9999999403953552,
        0.9999998807907104,
        1.0
      ],
      "translation": [
        -9.549606261316512e-08,
        0.022709250450134277,
        0.7539330720901489
      ]
    },
    {
      "name": "def_c_tailSail13_joint_030",
      "rotation": [
        0.2117212414741516,
        2.8747038527399127e-08,
        1.007443195533142e-08,
        0.977330207824707
      ],
      "scale": [
        0.9999999403953552,
        0.9999999403953552,
        0.9999998807907104
      ],
      "translation": [
        -1.0736906119745981e-07,
        0.5055327415466309,
        0.7267017364501953
      ]
    },
    {
      "name": "def_c_tailSail14_joint_031",
      "rotation": [
        0.24529282748699188,
        2.8399943730050836e-08,
        -8.910034376974352e-10,
        0.9694490432739258
      ],
      "scale": [
        0.9999999403953552,
        0.9999997615814209,
        1.0
      ],
      "translation": [
        -1.2148686323598668e-07,
        1.048437476158142,
        0.6852705478668213
      ]
    },
    {
      "name": "def_c_tailSail15_joint_032",
      "rotation": [
        0.21735462546348572,
        2.8201382562542676e-08,
        1.0229110003479036e-08,
        0.9760928153991699
      ],
      "scale": [
        0.9999999403953552,
        1.0,
        1.0000001192092896
      ],
      "translation": [
        -1.326314986727084e-07,
        1.4926379919052124,
        0.6570947170257568
      ]
    },
    {
      "name": "def_c_tailSail16_joint_033",
      "rotation": [
        0.23683026432991028,
        2.8970047694087953e-08,
        -3.477237942028921e-10,
        0.9715510606765747
      ],
      "scale": [
        0.9999999403953552,
        0.9999999403953552,
        1.0000001192092896
      ],
      "translation": [
        -1.4230261058401084e-07,
        1.9324811697006226,
        0.6484124660491943
      ]
    },
    {
      "name": "def_c_tailSail17_joint_034",
      "rotation": [
        0.22230152785778046,
        2.771799856304824e-08,
        1.0358845337066214e-08,
        0.974977970123291
      ],
      "scale": [
        0.9999999403953552,
        1.0000001192092896,
        1.0
      ],
      "translation": [
        -1.54648319039552e-07,
        2.403582811355591,
        0.61112380027771
      ]
    },
    {
      "name": "def_c_tailSail18_joint_035",
      "rotation": [
        0.2223014235496521,
        2.771797191769565e-08,
        1.0358967905688132e-08,
        0.9749780893325806
      ],
      "scale": [
        0.9999999403953552,
        1.0,
        1.0
      ],
      "translation": [
        -1.6407810221608088e-07,
        2.828744649887085,
        0.6015748977661133
      ]
    },
    {
      "name": "def_c_tailSail10_joint_036",
      "rotation": [
        0.26659131050109863,
        1.7901319537827476e-08,
        2.279590516351959e-09,
        0.9638096690177917
      ],
      "scale": [
        1.0000001192092896,
        1.0000001192092896,
        1.0000001192092896
      ],
      "translation": [
        -8.722615518763632e-08,
        3.149186134338379,
        0.8265097141265869
      ]
    },
    {
      "name": "def_c_tailSail11_joint_037",
      "rotation": [
        0.25664302706718445,
        1.8531105538954762e-08,
        2.834727119704894e-09,
        0.9665063619613647
      ],
      "scale": [
        1.0000001192092896,
        1.0000001192092896,
        0.9999999403953552
      ],
      "translation": [
        -9.968987058073253e-08,
        3.597041130065918,
        0.7864166498184204
      ]
    },
    {
      "name": "def_c_tailSail4_joint_038",
      "rotation": [
        0.27596867084503174,
        1.7311354127969025e-08,
        1.7424163223367373e-09,
        0.9611666202545166
      ],
      "scale": [
        1.0000001192092896,
        1.0000001192092896,
        1.0000001192092896
      ],
      "translation": [
        2.2303936475509545e-10,
        0.045685648918151855,
        1.126293420791626
      ]
    },
    {
      "name": "def_c_tailSail5_joint_039",
      "rotation": [
        0.2862028181552887,
        1.667223337165069e-08,
        1.1405264510599977e-09,
        0.958169162273407
      ],
      "scale": [
        1.0000001192092896,
        1.0,
        0.9999998211860657
      ],
      "translation": [
        -1.298751328704384e-08,
        0.5278886556625366,
        1.0873841047286987
      ]
    },
    {
      "name": "def_c_tailSail6_joint_040",
      "rotation": [
        0.27754920721054077,
        1.721235953766609e-08,
        1.6504426714192277e-09,
        0.9607114195823669
      ],
      "scale": [
        1.0000001192092896,
        1.0000001192092896,
        0.9999999403953552
      ],
      "translation": [
        -2.7674801117427705e-08,
        1.0560442209243774,
        1.040329933166504
      ]
    },
    {
      "name": "def_c_tailSail7_joint_041",
      "rotation": [
        0.28831830620765686,
        1.6540683489552066e-08,
        1.0142610085139836e-09,
        0.9575346112251282
      ],
      "scale": [
        1.0000001192092896,
        1.0,
        1.0000001192092896
      ],
      "translation": [
        -4.392002495023917e-08,
        1.596339225769043,
        0.9673621654510498
      ]
    },
    {
      "name": "def_c_tailSail8_joint_042",
      "rotation": [
        0.29364097118377686,
        1.6210892184176373e-08,
        6.93302526499906e-10,
        0.9559158086776733
      ],
      "scale": [
        1.0000001192092896,
        1.0,
        0.9999999403953552
      ],
      "translation": [
        -6.159159227081545e-08,
        2.211721658706665,
        0.9011757373809814
      ]
    },
    {
      "name": "def_c_tailSail9_joint_043",
      "rotation": [
        0.2801292836666107,
        1.7050982847877094e-08,
        1.4996217601037642e-09,
        0.9599623084068298
      ],
      "scale": [
        1.0000001192092896,
        1.0000001192092896,
        1.0000001192092896
      ],
      "translation": [
        -7.499455989545822e-08,
        2.7199273109436035,
        0.8707454204559326
      ]
    },
    {
      "name": "def_c_tailSail1_joint_044",
      "rotation": [
        4.135945630423521e-08,
        0.31487298011779785,
        0.9491338133811951,
        1.914210656650539e-07
      ],
      "scale": [
        0.9999999403953552,
        1.000000238418579,
        1.0000004768371582
      ],
      "translation": [
        -1.0209139134076395e-07,
        1.0297176837921143,
        1.3496721982955933
      ]
    },
    {
      "name": "def_c_tailSail2_joint_045",
      "rotation": [
        -3.0691282404404774e-08,
        0.27480122447013855,
        0.9615010619163513,
        2.1127505078766262e-07
      ],
      "scale": [
        0.9999999403953552,
        1.0000001192092896,
        1.0000001192092896
      ],
      "translation": [
        -2.5145004656224046e-07,
        0.5787418484687805,
        1.3226947784423828
      ]
    },
    {
      "name": "def_c_tailSail3_joint_046",
      "rotation": [
        2.053571002136323e-08,
        0.3017216622829437,
        0.9533960819244385,
        1.97725924522274e-07
      ],
      "scale": [
        0.9999999403953552,
        0.9999997615814209,
        0.9999995231628418
      ],
      "translation": [
        -4.191576863377122e-07,
        0.03322821855545044,
        1.210847020149231
      ]
    },
    {
      "children": [
        52,
        60,
        61
      ],
      "name": "def_rearLegUpr_joint.L_047",
      "rotation": [
        -0.5528671145439148,
        -0.4585707485675812,
        0.5864819288253784,
        0.37428566813468933
      ],
      "scale": [
        0.9999997019767761,
        0.9999996423721313,
        0.9999997615814209
      ],
      "translation": [
        -1.0087026357650757,
        0.8486973643302917,
        -0.1757509708404541
      ]
    },
    {
      "children": [
        53,
        58,
        59
      ],
      "name": "def_rearLegLwr_joint.L_048",
      "rotation": [
        -1.682236785427449e-07,
        -7.545309017586987e-07,
        0.15747779607772827,
        0.987522542476654
      ],
      "scale": [
        1.000000238418579,
        1.0,
        0.9999999403953552
      ],
      "translation": [
        2.60770320892334e-08,
        2.780587673187256,
        1.341104507446289e-07
      ]
    },
    {
      "children": [
        54,
        55,
        56,
        57
      ],
      "name": "def_rearFoot_joint.L_049",
      "rotation": [
        -0.045893505215644836,
        -0.15069499611854553,
        -0.40821704268455505,
        0.8991905450820923
      ],
      "scale": [
        1.000000238418579,
        1.0,
        0.9999999403953552
      ],
      "translation": [
        1.0803341865539551e-07,
        1.9780677556991577,
        1.1175870895385742e-07
      ]
    },
    {
      "name": "def_rearToeIndex1_joint.L_050",
      "rotation": [
        0.21380512416362762,
        0.7544140815734863,
        -0.3836640417575836,
        0.48779985308647156
      ],
      "scale": [
        0.9999998211860657,
        0.9999997615814209,
        0.9999998807907104
      ],
      "translation": [
        0.0024411454796791077,
        0.6207708120346069,
        -0.18982669711112976
      ]
    },
    {
      "name": "def_rearToeMid1_joint.L_051",
      "rotation": [
        0.341301292181015,
        0.6878417730331421,
        -0.27150604128837585,
        0.5802341103553772
      ],
      "scale": [
        0.9999999403953552,
        0.9999995231628418,
        0.9999998807907104
      ],
      "translation": [
        0.17489799857139587,
        0.6628061532974243,
        -0.018879827111959457
      ]
    },
    {
      "name": "def_rearToePinky1_joint.L_052",
      "rotation": [
        0.5563948154449463,
        0.48931488394737244,
        -0.07666806131601334,
        0.6671715974807739
      ],
      "scale": [
        0.9999997615814209,
        0.9999999403953552,
        0.9999998211860657
      ],
      "translation": [
        -0.01245870441198349,
        0.5133727192878723,
        0.31482604146003723
      ]
    },
    {
      "name": "def_rearToeRing1_joint.L_053",
      "rotation": [
        0.49253973364830017,
        0.5587772727012634,
        -0.1499767005443573,
        0.6501380801200867
      ],
      "scale": [
        1.0,
        0.9999998211860657,
        1.0
      ],
      "translation": [
        0.12323823571205139,
        0.6134288311004639,
        0.15854981541633606
      ]
    },
    {
      "name": "def_rearLegLwrAllTwist_joint.L_054",
      "rotation": [
        -1.3969840839678227e-09,
        2.3283062144940914e-09,
        -1.9813884932773362e-07,
        1.0
      ],
      "scale": [
        1.0000001192092896,
        1.0000001192092896,
        0.9999999403953552
      ],
      "translation": [
        -3.6135315895080566e-07,
        0.9890453219413757,
        -1.7136335372924805e-07
      ]
    },
    {
      "name": "def_rearLegLwrHalfTwist_joint.L_055",
      "rotation": [
        1.257285475730896e-08,
        5.681067705154419e-08,
        -9.080393681415444e-08,
        1.0
      ],
      "scale": [
        1.0000001192092896,
        1.0000001192092896,
        0.9999999403953552
      ],
      "translation": [
        -3.0547380447387695e-07,
        -3.725290298461914e-08,
        2.9802322387695313e-08
      ]
    },
    {
      "name": "def_rearLegUprAllTwist_joint.L_056",
      "rotation": [
        2.444721536321026e-09,
        -3.464228939265013e-07,
        3.399326686803761e-08,
        1.0
      ],
      "scale": [
        1.0000001192092896,
        1.000000238418579,
        1.0
      ],
      "translation": [
        3.5762786865234375e-07,
        1.3903840780258179,
        -1.043081283569336e-07
      ]
    },
    {
      "name": "def_rearLegUprHalfTwist_joint.L_057",
      "rotation": [
        -2.6891935789308263e-08,
        -3.8044524330871354e-07,
        3.5855912017268565e-08,
        1.0
      ],
      "scale": [
        1.0000001192092896,
        1.000000238418579,
        1.0
      ],
      "translation": [
        8.642673492431641e-07,
        7.227063179016113e-07,
        -1.043081283569336e-07
      ]
    },
    {
      "children": [
        63,
        71,
        72
      ],
      "name": "def_rearLegUpr_joint.R_058",
      "rotation": [
        0.5528669953346252,
        -0.4585708677768707,
        0.586482048034668,
        -0.3742855489253998
      ],
      "scale": [
        1.0000001192092896,
        1.0000005960464478,
        1.000000238418579
      ],
      "translation": [
        1.008703351020813,
        0.8486968874931335,
        -0.175750732421875
      ]
    },
    {
      "children": [
        64,
        69,
        70
      ],
      "name": "def_rearLegLwr_joint.R_059",
      "rotation": [
        -1.579086301717325e-07,
        7.740706564618449e-07,
        -0.15747779607772827,
        0.987522542476654
      ],
      "scale": [
        0.9999999403953552,
        0.9999997615814209,
        0.9999998807907104
      ],
      "translation": [
        -1.7136335372924805e-07,
        2.7805874347686768,
        -5.960464477539063e-08
      ]
    },
    {
      "children": [
        65,
        66,
        67,
        68
      ],
      "name": "def_rearFoot_joint.R_060",
      "rotation": [
        -0.04589352384209633,
        0.15069493651390076,
        0.4082171320915222,
        0.8991905450820923
      ],
      "scale": [
        1.0000001192092896,
        1.0,
        0.9999999403953552
      ],
      "translation": [
        1.0058283805847168e-07,
        1.9780669212341309,
        -7.078051567077637e-08
      ]
    },
    {
      "name": "def_rearToeIndex1_joint.R_061",
      "rotation": [
        -0.21380510926246643,
        0.7544142603874207,
        -0.3836640417575836,
        -0.48779982328414917
      ],
      "scale": [
        0.9999998807907104,
        0.9999997019767761,
        0.9999997019767761
      ],
      "translation": [
        -0.002441123127937317,
        0.6207706332206726,
        -0.18982642889022827
      ]
    },
    {
      "name": "def_rearToeMid1_joint.R_062",
      "rotation": [
        0.3413013517856598,
        -0.6878417730331421,
        0.2715061902999878,
        0.5802339911460876
      ],
      "scale": [
        0.9999996423721313,
        0.9999997615814209,
        0.9999995231628418
      ],
      "translation": [
        -0.17489808797836304,
        0.6628060340881348,
        -0.01887979544699192
      ]
    },
    {
      "name": "def_rearToePinky1_joint.R_063",
      "rotation": [
        0.5563948154449463,
        -0.4893149137496948,
        0.07666807621717453,
        0.6671714186668396
      ],
      "scale": [
        0.9999998211860657,
        0.9999998807907104,
        0.9999995231628418
      ],
      "translation": [
        0.01245865598320961,
        0.5133726000785828,
        0.3148260712623596
      ]
    },
    {
      "name": "def_rearToeRing1_joint.R_064",
      "rotation": [
        0.49253973364830017,
        -0.5587772727012634,
        0.14997662603855133,
        0.6501381397247314
      ],
      "scale": [
        0.9999997615814209,
        0.9999998211860657,
        0.9999997615814209
      ],
      "translation": [
        -0.12323834002017975,
        0.6134287118911743,
        0.15854978561401367
      ]
    },
    {
      "name": "def_rearLegLwrAllTwist_joint.R_065",
      "rotation": [
        1.3969838619232178e-09,
        3.725290076417309e-09,
        2.230517424095524e-07,
        1.0
      ],
      "scale": [
        1.0000001192092896,
        1.0,
        1.0000001192092896
      ],
      "translation": [
        4.023313522338867e-07,
        0.9890444278717041,
        -3.948807716369629e-07
      ]
    },
    {
      "name": "def_rearLegLwrHalfTwist_joint.R_066",
      "rotation": [
        1.6298143279414035e-08,
        -5.07570767638299e-08,
        5.564652028056116e-08,
        1.0
      ],
      "scale": [
        1.0,
        1.0000001192092896,
        1.0000001192092896
      ],
      "translation": [
        3.650784492492676e-07,
        -7.301568984985352e-07,
        -7.450580596923828e-08
      ]
    },
    {
      "name": "def_rearLegUprAllTwist_joint.R_067",
      "rotation": [
        3.3178364500230373e-09,
        3.3248215913772583e-07,
        2.852175207124219e-08,
        1.0
      ],
      "scale": [
        1.0,
        1.0000001192092896,
        1.0
      ],
      "translation": [
        -3.948807716369629e-07,
        1.3903839588165283,
        -2.682209014892578e-07
      ]
    },
    {
      "name": "def_rearLegUprHalfTwist_joint.R_068",
      "rotation": [
        -1.2922099834611345e-08,
        3.6455458030104637e-07,
        2.537853838191495e-08,
        1.0
      ],
      "scale": [
        1.0,
        1.0000001192092896,
        1.0
      ],
      "translation": [
        -6.556510925292969e-07,
        1.0617077350616455e-06,
        -2.384185791015625e-07
      ]
    },
    {
      "children": [
        74
      ],
      "name": "def_c_spine1_joint_069",
      "rotation": [
        0.02767639048397541,
        8.46958130296116e-07,
        -2.9672554191506606e-08,
        0.9996170401573181
      ],
      "scale": [
        1.0000001192092896,
        1.0,
        1.0
      ],
      "translation": [
        2.842170943040401e-14,
        1.6432875394821167,
        2.0861621408130304e-07
      ]
    },
    {
      "children": [
        75,
        76,
        77,
        152,
        153
      ],
      "name": "def_c_spine2_joint_070",
      "rotation": [
        -0.026523536071181297,
        -8.862451750246692e-07,
        -2.9243312837934354e-07,
        0.9996482133865356
      ],
      "scale": [
        1.0,
        0.9999999403953552,
        0.9999999403953552
      ],
      "translation": [
        6.679101716144942e-13,
        1.1219310760498047,
        4.526219470335491e-07
      ]
    },
    {
      "name": "def_c_bellyWobble_joint_071",
      "rotation": [
        0.5500342845916748,
        -0.55003422498703,
        -0.444367378950119,
        -0.4443674683570862
      ],
      "scale": [
        0.9999995827674866,
        1.0,
        0.9999996423721313
      ],
      "translation": [
        4.931628154736245e-07,
        0.011923909187316895,
        -0.8547905683517456
      ]
    },
    {
      "name": "def_c_chestBreath_joint_072",
      "rotation": [
        -0.5293700098991394,
        0.5293708443641663,
        0.46879270672798157,
        0.46879342198371887
      ],
      "scale": [
        0.9999997019767761,
        1.0,
        0.9999995827674866
      ],
      "translation": [
        6.496214837170555e-07,
        -0.27300918102264404,
        -3.2422902584075928
      ]
    },
    {
      "children": [
        78,
        128,
        140
      ],
      "name": "def_c_chest_joint_073",
      "rotation": [
        -0.06362516433000565,
        -1.6234346844612446e-07,
        3.354608679728699e-07,
        0.9979738593101501
      ],
      "scale": [
        1.0,
        0.9999991655349731,
        0.9999990463256836
      ],
      "translation": [
        5.684341886080802e-14,
        1.1028172969818115,
        -5.9604641222676946e-08
      ]
    },
    {
      "children": [
        79
      ],
      "name": "def_c_neck1_joint_074",
      "rotation": [
        0.3355030119419098,
        1.2335917176642397e-07,
        -1.1710222480587618e-07,
        0.9420392513275146
      ],
      "scale": [
        1.0,
        1.0000001192092896,
        1.0000001192092896
      ],
      "translation": [
        -1.7053025658242404e-13,
        1.4819122552871704,
        1.7881400538044545e-07
      ]
    },
    {
      "children": [
        80
      ],
      "name": "def_c_neck2_joint_075",
      "rotation": [
        -0.004128968343138695,
        -1.510477432020707e-07,
        1.6951785808405617e-10,
        0.9999914765357971
      ],
      "scale": [
        1.0,
        1.0,
        1.0000001192092896
      ],
      "translation": [
        2.842170943040401e-14,
        1.8000006675720215,
        -2.3841860752327193e-07
      ]
    },
    {
      "children": [
        81
      ],
      "name": "def_c_neck3_joint_076",
      "rotation": [
        -0.02263789251446724,
        1.2540493088408766e-08,
        -1.7402466134797123e-09,
        0.9997437596321106
      ],
      "scale": [
        1.0,
        1.0,
        0.9999999403953552
      ],
      "translation": [
        -5.684341886080802e-14,
        1.8000023365020752,
        -4.768370729379967e-07
      ]
    },
    {
      "children": [
        82
      ],
      "name": "def_c_neck4_joint_077",
      "rotation": [
        -0.019805658608675003,
        -9.978435855373391e-08,
        -2.9290803116310826e-09,
        0.9998038411140442
      ],
      "scale": [
        1.0,
        0.9999998807907104,
        1.0
      ],
      "translation": [
        8.526512829121202e-14,
        1.8000023365020752,
        7.460698725481052e-14
      ]
    },
    {
      "children": [
        83
      ],
      "name": "def_c_neck5_joint_078",
      "rotation": [
        -0.039184607565402985,
        3.7616725734324064e-08,
        -7.986241112867276e-10,
        0.9992319941520691
      ],
      "scale": [
        1.0,
        0.9999996423721313,
        0.9999998807907104
      ],
      "translation": [
        3.694822225952521e-13,
        1.8000059127807617,
        1.5365486660812167e-13
      ]
    },
    {
      "children": [
        84,
        121,
        122,
        123,
        124,
        125,
        126,
        127
      ],
      "name": "def_c_neck6_joint_079",
      "rotation": [
        -0.07425947487354279,
        -2.79551208848261e-08,
        -8.150427555086992e-11,
        0.9972390532493591
      ],
      "scale": [
        1.0,
        0.9999998211860657,
        0.9999997019767761
      ],
      "translation": [
        3.694822225952521e-13,
        1.800008773803711,
        -4.768370445162873e-07
      ]
    },
    {
      "children": [
        85,
        113,
        115,
        116,
        117,
        118,
        119,
        120
      ],
      "name": "def_c_neck7_joint_080",
      "rotation": [
        -0.08844322711229324,
        2.3557621631198344e-08,
        2.869788886528113e-07,
        0.9960812330245972
      ],
      "scale": [
        1.0,
        0.9999998211860657,
        0.9999998211860657
      ],
      "translation": [
        -3.126388037344441e-13,
        1.80000638961792,
        7.194245199571014e-14
      ]
    },
    {
      "children": [
        86,
        97,
        98,
        99,
        100,
        101,
        102,
        103,
        104,
        105,
        106,
        107,
        108,
        109,
        110,
        111,
        112
      ],
      "name": "def_c_head_joint_081",
      "rotation": [
        -0.19711114466190338,
        -1.96384166883945e-06,
        8.154489478329197e-06,
        0.9803811311721802
      ],
      "scale": [
        1.0,
        1.000000238418579,
        1.0000001192092896
      ],
      "translation": [
        1.2505552149377763e-12,
        1.627553939819336,
        -4.7683684556432127e-07
      ]
    },
    {
      "children": [
        87,
        88,
        91,
        92,
        93,
        94,
        95,
        96
      ],
      "name": "def_c_jaw_joint_082",
      "rotation": [
        -0.10532598197460175,
        1.4837632988928817e-07,
        2.3980717855920375e-07,
        0.9944377541542053
      ],
      "scale": [
        1.0,
        0.9999997615814209,
        0.9999998807907104
      ],
      "translation": [
        4.299181455280632e-09,
        0.65896075963974,
        -0.3046844005584717
      ]
    },
    {
      "name": "def_c_lipLwr_joint_083",
      "rotation": [
        -0.6885934472084045,
        0.688605010509491,
        0.1607230305671692,
        0.16071811318397522
      ],
      "scale": [
        1.0000003576278687,
        1.0,
        1.0000003576278687
      ],
      "translation": [
        4.544563125818968e-07,
        0.8943603038787842,
        0.046861886978149414
      ]
    },
    {
      "children": [
        89
      ],
      "name": "def_c_tongue1_joint_084",
      "rotation": [
        0.034508801996707916,
        -9.671092726648567e-08,
        -2.530777578613197e-07,
        0.9994044899940491
      ],
      "scale": [
        1.0,
        1.0000001192092896,
        1.0
      ],
      "translation": [
        3.000332071678713e-08,
        0.08133220672607422,
        0.04794025421142578
      ]
    },
    {
      "children": [
        90
      ],
      "name": "def_c_tongue2_joint_085",
      "rotation": [
        -0.027079859748482704,
        -3.763852873817086e-08,
        -4.797525932076496e-09,
        0.9996333718299866
      ],
      "scale": [
        1.0,
        0.9999998211860657,
        0.9999998211860657
      ],
      "translation": [
        2.040906110778451e-09,
        0.21099567413330078,
        2.861151642719051e-06
      ]
    },
    {
      "name": "def_c_tongue3_joint_086",
      "rotation": [
        -0.02329699508845806,
        2.9517261523892557e-08,
        -4.894411542721855e-09,
        0.9997286796569824
      ],
      "scale": [
        1.0,
        1.0,
        0.9999999403953552
      ],
      "translation": [
        2.5047484086826444e-09,
        0.23633933067321777,
        -4.291360710340086e-06
      ]
    },
    {
      "name": "def_lipLwr1_joint.L_087",
      "rotation": [
        0.865678608417511,
        -0.2483559250831604,
        -0.4094366729259491,
        -0.14588189125061035
      ],
      "scale": [
        0.9999998211860657,
        0.9999998807907104,
        1.0
      ],
      "translation": [
        -0.13158409297466278,
        0.8128361105918884,
        0.034925635904073715
      ]
    },
    {
      "name": "def_lipLwr2_joint.L_088",
      "rotation": [
        -0.6295133233070374,
        0.09595271199941635,
        0.7694690227508545,
        0.049229275435209274
      ],
      "scale": [
        0.9999948740005493,
        0.9999998211860657,
        0.9999989867210388
      ],
      "translation": [
        -0.2005639672279358,
        0.6443478465080261,
        0.04505771026015282
      ]
    },
    {
      "name": "def_lipLwr3_joint.L_089",
      "rotation": [
        -0.0940997451543808,
        0.025392990559339523,
        0.9814211130142212,
        0.16526710987091064
      ],
      "scale": [
        0.9999985694885254,
        1.0000001192092896,
        0.9999998807907104
      ],
      "translation": [
        -0.2399376630783081,
        0.5114765763282776,
        0.04945932328701019
      ]
    },
    {
      "name": "def_lipLwr1_joint.R_090",
      "rotation": [
        0.8656863570213318,
        0.24834232032299042,
        0.409429669380188,
        -0.14587870240211487
      ],
      "scale": [
        1.0000001192092896,
        1.000000238418579,
        0.9999998211860657
      ],
      "translation": [
        0.13162533938884735,
        0.8128321766853333,
        0.03492385521531105
      ]
    },
    {
      "name": "def_lipLwr2_joint.R_091",
      "rotation": [
        0.6295222043991089,
        0.0959431529045105,
        0.7694635391235352,
        -0.04921979457139969
      ],
      "scale": [
        0.9999920129776001,
        0.9999996423721313,
        0.9999983310699463
      ],
      "translation": [
        0.20060065388679504,
        0.6443424820899963,
        0.04505259171128273
      ]
    },
    {
      "name": "def_lipLwr3_joint.R_092",
      "rotation": [
        0.09411023557186127,
        0.02538994885981083,
        0.9814224243164063,
        -0.16525384783744812
      ],
      "scale": [
        0.9999979138374329,
        0.9999999403953552,
        1.0
      ],
      "translation": [
        0.23997065424919128,
        0.5114697813987732,
        0.04945434629917145
      ]
    },
    {
      "name": "def_c_lipUpr_joint_093",
      "rotation": [
        -0.04109342768788338,
        0.04108692333102226,
        0.7059120535850525,
        0.7059117555618286
      ],
      "scale": [
        0.9999998211860657,
        0.9999999403953552,
        0.9999998807907104
      ],
      "translation": [
        1.6152625903487206e-08,
        1.6092532873153687,
        -0.363241970539093
      ]
    },
    {
      "name": "def_c_neckSail1_joint_094",
      "rotation": [
        4.476822468291175e-08,
        0.08917637169361115,
        0.9960158467292786,
        -7.980813165886502e-08
      ],
      "scale": [
        1.0,
        1.000000238418579,
        1.0000054836273193
      ],
      "translation": [
        2.206434146501124e-09,
        0.08229458332061768,
        0.5113108158111572
      ]
    },
    {
      "name": "def_eye_joint.L_095",
      "rotation": [
        0.010225912556052208,
        0.00605997396633029,
        0.5097036361694336,
        0.8602679371833801
      ],
      "scale": [
        0.9999998807907104,
        0.9999998211860657,
        0.9999998807907104
      ],
      "translation": [
        -0.27046990394592285,
        0.7687686085700989,
        0.24903714656829834
      ]
    },
    {
      "name": "def_eyelidLwr_joint.L_096",
      "rotation": [
        -0.20503133535385132,
        -0.12147869914770126,
        0.49505215883255005,
        0.8355409502983093
      ],
      "scale": [
        0.9999997615814209,
        1.0,
        0.9999999403953552
      ],
      "translation": [
        -0.2704867124557495,
        0.7687781453132629,
        0.24823033809661865
      ]
    },
    {
      "name": "def_eyelidUpr_joint.L_097",
      "rotation": [
        0.21540988981723785,
        0.12762880325317383,
        0.49350249767303467,
        0.8329254388809204
      ],
      "scale": [
        0.9999999403953552,
        1.0,
        0.9999999403953552
      ],
      "translation": [
        -0.2686941921710968,
        0.7701895236968994,
        0.23455272614955902
      ]
    },
    {
      "name": "def_lipUpr1_joint.L_098",
      "rotation": [
        0.9527352452278137,
        -0.2960132658481598,
        0.04666762799024582,
        0.04993831366300583
      ],
      "scale": [
        1.0000003576278687,
        1.000000238418579,
        1.0
      ],
      "translation": [
        -0.1513458639383316,
        1.5169991254806519,
        -0.35223639011383057
      ]
    },
    {
      "name": "def_lipUpr2_joint.L_099",
      "rotation": [
        -0.4317614436149597,
        0.08050914108753204,
        0.8955308198928833,
        0.07158853113651276
      ],
      "scale": [
        1.000000238418579,
        0.9999999403953552,
        1.0
      ],
      "translation": [
        -0.22495833039283752,
        1.32050621509552,
        -0.3333883583545685
      ]
    },
    {
      "name": "def_lipUpr3_joint.L_0100",
      "rotation": [
        0.7419388294219971,
        -0.11349134892225266,
        -0.6601540446281433,
        -0.02903721295297146
      ],
      "scale": [
        0.9999997615814209,
        0.9999998211860657,
        0.9999999403953552
      ],
      "translation": [
        -0.24348780512809753,
        1.1720155477523804,
        -0.3298252820968628
      ]
    },
    {
      "name": "def_nosePanel_joint.L_0101",
      "rotation": [
        -0.05038321390748024,
        0.06305421888828278,
        0.6395270824432373,
        0.764519989490509
      ],
      "scale": [
        0.9999998211860657,
        0.9999999403953552,
        0.9999999403953552
      ],
      "translation": [
        -0.21976180374622345,
        1.2566903829574585,
        0.07607167959213257
      ]
    },
    {
      "name": "def_eye_joint.R_0102",
      "rotation": [
        0.010221968404948711,
        -0.006053639110177755,
        -0.5097169876098633,
        0.8602601289749146
      ],
      "scale": [
        0.9999998807907104,
        0.9999999403953552,
        0.9999997615814209
      ],
      "translation": [
        0.2704992890357971,
        0.7687602043151855,
        0.24903306365013123
      ]
    },
    {
      "name": "def_eyelidLwr_joint.R_0103",
      "rotation": [
        -0.20503316819667816,
        0.12148819863796234,
        -0.495063453912735,
        0.8355323076248169
      ],
      "scale": [
        0.9999999403953552,
        1.0,
        1.0
      ],
      "translation": [
        0.27051615715026855,
        0.7687697410583496,
        0.24822625517845154
      ]
    },
    {
      "name": "def_eyelidUpr_joint.R_0104",
      "rotation": [
        0.215404212474823,
        -0.12762588262557983,
        -0.4935169517993927,
        0.8329187631607056
      ],
      "scale": [
        0.9999999403953552,
        1.0,
        1.0
      ],
      "translation": [
        0.26872339844703674,
        0.7701811790466309,
        0.2345486730337143
      ]
    },
    {
      "name": "def_lipUpr1_joint.R_00",
      "rotation": [
        0.9527394771575928,
        0.2959989011287689,
        -0.046675607562065125,
        0.04993560165166855
      ],
      "scale": [
        1.0,
        1.0,
        0.9999999403953552
      ],
      "translation": [
        0.15138937532901764,
        1.5169944763183594,
        -0.35223960876464844
      ]
    },
    {
      "name": "def_lipUpr2_joint.R_01",
      "rotation": [
        0.4317696690559387,
        0.08050195872783661,
        0.8955285549163818,
        -0.07157515734434128
      ],
      "scale": [
        1.0000016689300537,
        0.9999999403953552,
        1.000000238418579
      ],
      "translation": [
        0.22499603033065796,
        1.3204991817474365,
        -0.3333908021450043
      ]
    },
    {
      "name": "def_lipUpr3_joint.R_0105",
      "rotation": [
        0.7419450283050537,
        0.11347901821136475,
        0.6601496934890747,
        -0.029027363285422325
      ],
      "scale": [
        0.9999964833259583,
        0.9999994039535522,
        0.9999990463256836
      ],
      "translation": [
        0.24352094531059265,
        1.1720080375671387,
        -0.3298289477825165
      ]
    },
    {
      "name": "def_nosePanel_joint.R_0106",
      "rotation": [
        -0.05038902536034584,
        -0.06304765492677689,
        -0.6395385265350342,
        0.7645105719566345
      ],
      "scale": [
        0.9999998807907104,
        0.9999998807907104,
        0.9999999403953552
      ],
      "translation": [
        0.21980367600917816,
        1.256683588027954,
        0.07606836408376694
      ]
    },
    {
      "children": [
        114
      ],
      "name": "def_c_neckBulgeTranslate_joint_0107",
      "rotation": [
        -0.6911482810974121,
        0.005743878893554211,
        -0.0005609790678136051,
        0.7226899266242981
      ],
      "scale": [
        0.9999999403953552,
        0.9999998807907104,
        1.0000001192092896
      ],
      "translation": [
        0.017202133312821388,
        0.8905110359191895,
        -0.38251209259033203
      ]
    },
    {
      "name": "def_c_neckBulgeScale_joint_0108",
      "rotation": [
        1.274302348974743e-06,
        3.492460209919557e-10,
        -3.591412678360939e-08,
        1.0
      ],
      "scale": [
        0.9999998807907104,
        1.0,
        0.9999998211860657
      ],
      "translation": [
        3.725290298461914e-09,
        4.002213245257735e-07,
        -2.645916538313031e-06
      ]
    },
    {
      "name": "def_c_neckSail2_joint_0109",
      "rotation": [
        2.1232243341273715e-07,
        0.3119830787181854,
        0.9500876665115356,
        1.35215088903351e-07
      ],
      "scale": [
        1.0,
        0.9999999403953552,
        0.9999997615814209
      ],
      "translation": [
        1.208220510307001e-07,
        1.596468448638916,
        0.49041223526000977
      ]
    },
    {
      "name": "def_c_neckSail3_joint_0110",
      "rotation": [
        1.896027868042438e-07,
        0.3012053966522217,
        0.953559398651123,
        1.4429919303893257e-07
      ],
      "scale": [
        1.0,
        0.9999999403953552,
        1.0
      ],
      "translation": [
        4.933473246637732e-05,
        1.21513032913208,
        0.5915746688842773
      ]
    },
    {
      "name": "def_c_neckSail4_joint_0111",
      "rotation": [
        -0.0013368397485464811,
        0.30050116777420044,
        0.9537796378135681,
        0.0012829182669520378
      ],
      "scale": [
        0.9999998807907104,
        1.0000001192092896,
        1.0
      ],
      "translation": [
        -1.499379322922323e-07,
        0.8895225524902344,
        0.6418333053588867
      ]
    },
    {
      "name": "def_c_neckSail5_joint_0112",
      "rotation": [
        1.9015062946436956e-07,
        0.2639297842979431,
        0.9645419120788574,
        1.4983358198605856e-07
      ],
      "scale": [
        1.0,
        1.0,
        0.9999997615814209
      ],
      "translation": [
        -2.7768328436650336e-07,
        0.5710525512695313,
        0.6905581951141357
      ]
    },
    {
      "name": "def_c_neckSail6_joint_0113",
      "rotation": [
        1.4969756989557936e-07,
        0.2511228024959564,
        0.9679552316665649,
        1.6231609833994298e-07
      ],
      "scale": [
        1.0,
        0.9999997615814209,
        0.999999463558197
      ],
      "translation": [
        -4.1976204556704033e-07,
        0.23972558975219727,
        0.7073967456817627
      ]
    },
    {
      "name": "def_c_neckSail7_joint_0114",
      "rotation": [
        1.7100971660966025e-07,
        0.2291381061077118,
        0.9733940362930298,
        1.5977330747318774e-07
      ],
      "scale": [
        1.0,
        0.9999997615814209,
        0.9999993443489075
      ],
      "translation": [
        -5.569634140556445e-07,
        -0.05853414535522461,
        0.6917195320129395
      ]
    },
    {
      "name": "def_c_neckSail10_joint_0115",
      "rotation": [
        1.4178753815485834e-07,
        0.230536088347435,
        0.9730637669563293,
        -1.111798084707516e-07
      ],
      "scale": [
        1.0,
        0.9999997019767761,
        0.9999990463256836
      ],
      "translation": [
        -4.531625563686248e-07,
        1.0308341979980469,
        0.727872371673584
      ]
    },
    {
      "name": "def_c_neckSail11_joint_0116",
      "rotation": [
        1.5193677427305374e-07,
        0.2179047167301178,
        0.9759701490402222,
        -1.1127968946311739e-07
      ],
      "scale": [
        1.0,
        0.9999995827674866,
        0.9999983310699463
      ],
      "translation": [
        -4.1490784497000277e-07,
        0.674252986907959,
        0.7525129318237305
      ]
    },
    {
      "name": "def_c_neckSail12_joint_0117",
      "rotation": [
        1.7527229090319452e-07,
        0.19359010457992554,
        0.9810824990272522,
        -1.1153891676940475e-07
      ],
      "scale": [
        1.0,
        1.0,
        0.9999998807907104
      ],
      "translation": [
        -3.799925707426155e-07,
        0.30208396911621094,
        0.7626352310180664
      ]
    },
    {
      "name": "def_c_neckSail13_joint_0118",
      "rotation": [
        1.7527244722259638e-07,
        0.19359008967876434,
        0.9810824990272522,
        -1.1153894519111418e-07
      ],
      "scale": [
        1.0,
        1.0000001192092896,
        1.0000005960464478
      ],
      "translation": [
        -3.656446097011212e-07,
        0.05140495300292969,
        0.7409133911132813
      ]
    },
    {
      "name": "def_c_neckSail14_joint_0119",
      "rotation": [
        1.7527194984268135e-07,
        0.19359005987644196,
        0.9810824990272522,
        -1.1153884571513117e-07
      ],
      "scale": [
        1.0,
        0.9999999403953552,
        1.000000238418579
      ],
      "translation": [
        -3.4889740163634997e-07,
        -0.19031572341918945,
        0.729029655456543
      ]
    },
    {
      "name": "def_c_neckSail8_joint_0120",
      "rotation": [
        1.0777269920936305e-07,
        0.28729507327079773,
        0.9578421115875244,
        -1.1114615006135864e-07
      ],
      "translation": [
        -4.913885049973032e-07,
        1.5314412117004395,
        0.7414579391479492
      ]
    },
    {
      "name": "def_c_neckSail9_joint_0121",
      "rotation": [
        1.268846290258807e-07,
        0.2521306574344635,
        0.9676932096481323,
        -1.1107797348586246e-07
      ],
      "scale": [
        1.0,
        0.9999999403953552,
        1.0
      ],
      "translation": [
        -4.7312744300143095e-07,
        1.2979316711425781,
        0.7364597320556641
      ]
    },
    {
      "children": [
        129
      ],
      "name": "def_clavicle_joint.L_0122",
      "rotation": [
        -0.24173197150230408,
        -0.6379567384719849,
        0.46747878193855286,
        0.5621747970581055
      ],
      "scale": [
        1.000000238418579,
        1.0000001192092896,
        0.9999998807907104
      ],
      "translation": [
        -0.7713342308998108,
        0.44911593198776245,
        0.7156425714492798
      ]
    },
    {
      "children": [
        130,
        138,
        139
      ],
      "name": "def_frontLegUpr_joint.L_0123",
      "rotation": [
        -0.0515790656208992,
        0.09360538423061371,
        0.39273330569267273,
        0.9134212732315063
      ],
      "scale": [
        0.9999999403953552,
        0.9999997615814209,
        1.0000001192092896
      ],
      "translation": [
        -1.519918441772461e-06,
        2.152235746383667,
        3.0738224268134218e-06
      ]
    },
    {
      "children": [
        131,
        136,
        137
      ],
      "name": "def_frontLegLwr_joint.L_0124",
      "rotation": [
        1.6264598912130168e-07,
        -4.2809000433408073e-07,
        -0.12591053545475006,
        0.9920415878295898
      ],
      "scale": [
        0.9999999403953552,
        1.0000003576278687,
        1.000000238418579
      ],
      "translation": [
        3.8743019104003906e-07,
        2.966172695159912,
        -9.685754776000977e-08
      ]
    },
    {
      "children": [
        132,
        133,
        134,
        135
      ],
      "name": "def_frontFoot_joint.L_0125",
      "rotation": [
        0.08443649113178253,
        -0.03474634140729904,
        0.04695790261030197,
        0.9947150945663452
      ],
      "scale": [
        0.9999998211860657,
        0.9999999403953552,
        1.0
      ],
      "translation": [
        -1.4901161193847656e-08,
        1.8913977146148682,
        -9.313225746154785e-08
      ]
    },
    {
      "name": "def_frontToeIndex1_joint.L_0126",
      "rotation": [
        -0.1908784806728363,
        -0.6479130983352661,
        0.6913195848464966,
        -0.2566153109073639
      ],
      "scale": [
        1.0000001192092896,
        1.0,
        1.0
      ],
      "translation": [
        0.23042412102222443,
        0.7491123080253601,
        -0.3681260943412781
      ]
    },
    {
      "name": "def_frontToeMid1_joint.L_0127",
      "rotation": [
        -0.41116851568222046,
        -0.5359711647033691,
        0.5527423024177551,
        -0.48800745606422424
      ],
      "scale": [
        0.9999997615814209,
        0.9999998211860657,
        1.0
      ],
      "translation": [
        0.3009470999240875,
        0.7800371646881104,
        -0.16676485538482666
      ]
    },
    {
      "name": "def_frontToePinky1_joint.L_0128",
      "rotation": [
        0.5909876823425293,
        0.3270464539527893,
        -0.31176257133483887,
        0.6682652235031128
      ],
      "scale": [
        1.0,
        0.9999998807907104,
        1.0000001192092896
      ],
      "translation": [
        0.010828397236764431,
        0.79365473985672,
        0.19536185264587402
      ]
    },
    {
      "name": "def_frontToeRing1_joint.L_0129",
      "rotation": [
        0.578453004360199,
        0.348737508058548,
        -0.33632999658584595,
        0.656244158744812
      ],
      "scale": [
        1.0,
        0.9999998211860657,
        1.000000238418579
      ],
      "translation": [
        0.247674822807312,
        0.7963552474975586,
        -0.0008609713986515999
      ]
    },
    {
      "name": "def_frontLegLwrAllTwist_joint.L_0130",
      "rotation": [
        -2.8871003365793513e-08,
        -1.7811547792234705e-08,
        9.837094694375992e-09,
        1.0
      ],
      "scale": [
        0.9999999403953552,
        1.0,
        0.9999997615814209
      ],
      "translation": [
        -2.2351741790771484e-07,
        0.9456924200057983,
        -1.6391277313232422e-07
      ]
    },
    {
      "name": "def_frontLegLwrHalfTwist_joint.L_0131",
      "rotation": [
        -2.8871003365793513e-08,
        1.6391278734317893e-07,
        3.899913281202316e-09,
        1.0
      ],
      "scale": [
        1.0000001192092896,
        1.0,
        0.9999997615814209
      ],
      "translation": [
        -4.470348358154297e-08,
        3.3155083656311035e-07,
        0.0
      ]
    },
    {
      "name": "def_frontLegUprHalfTwist_joint.L_0132",
      "rotation": [
        2.0954756152491427e-08,
        -6.949994713068008e-08,
        2.1653249859809875e-08,
        1.0
      ],
      "scale": [
        1.0,
        1.0000001192092896,
        1.0000001192092896
      ],
      "translation": [
        8.493661880493164e-07,
        -1.8849968910217285e-06,
        1.1473894119262695e-06
      ]
    },
    {
      "name": "def_frontLegUprAllTwist_joint.L_0133",
      "rotation": [
        6.682239472866058e-08,
        -2.84751905610392e-07,
        -3.6461278796195984e-07,
        1.0
      ],
      "scale": [
        0.9999998807907104,
        1.0000001192092896,
        0.9999998807907104
      ],
      "translation": [
        4.3213367462158203e-07,
        1.4830851554870605,
        1.2665987014770508e-06
      ]
    },
    {
      "children": [
        141
      ],
      "name": "def_clavicle_joint.R_0134",
      "rotation": [
        -0.24173197150230408,
        0.6379568576812744,
        -0.46747884154319763,
        0.5621745586395264
      ],
      "scale": [
        1.000000238418579,
        1.0,
        1.000000238418579
      ],
      "translation": [
        0.7713333964347839,
        0.44911569356918335,
        0.7156421542167664
      ]
    },
    {
      "children": [
        142,
        150,
        151
      ],
      "name": "def_frontLegUpr_joint.R_0135",
      "rotation": [
        -0.05157915875315666,
        -0.09360537678003311,
        -0.39273327589035034,
        0.9134211540222168
      ],
      "scale": [
        0.9999999403953552,
        0.9999998211860657,
        1.0000003576278687
      ],
      "translation": [
        1.0728836059570313e-06,
        2.1522371768951416,
        4.30221734859515e-06
      ]
    },
    {
      "children": [
        143,
        148,
        149
      ],
      "name": "def_frontLegLwr_joint.R_0136",
      "rotation": [
        1.6921762835409027e-07,
        4.2621255147423653e-07,
        0.12591059505939484,
        0.9920415878295898
      ],
      "scale": [
        0.9999997615814209,
        1.0000001192092896,
        0.9999996423721313
      ],
      "translation": [
        1.043081283569336e-07,
        2.9661731719970703,
        -9.685754776000977e-08
      ]
    },
    {
      "children": [
        144,
        145,
        146,
        147
      ],
      "name": "def_frontFoot_joint.R_0137",
      "rotation": [
        0.08443646132946014,
        0.03474634140729904,
        -0.04695789888501167,
        0.9947150945663452
      ],
      "scale": [
        0.9999999403953552,
        1.0000001192092896,
        1.0
      ],
      "translation": [
        2.682209014892578e-07,
        1.8913989067077637,
        1.862645149230957e-07
      ]
    },
    {
      "name": "def_frontToeIndex1_joint.R_0138",
      "rotation": [
        0.19087845087051392,
        -0.6479129791259766,
        0.6913195252418518,
        0.25661545991897583
      ],
      "scale": [
        1.0,
        0.9999999403953552,
        1.0
      ],
      "translation": [
        -0.2304239720106125,
        0.7491123080253601,
        -0.3681260645389557
      ]
    },
    {
      "name": "def_frontToeMid1_joint.R_0139",
      "rotation": [
        0.41116851568222046,
        -0.5359714031219482,
        0.5527421832084656,
        0.4880076050758362
      ],
      "scale": [
        1.0,
        0.9999999403953552,
        1.0
      ],
      "translation": [
        -0.3009471893310547,
        0.7800374031066895,
        -0.16676482558250427
      ]
    },
    {
      "name": "def_frontToePinky1_joint.R_0140",
      "rotation": [
        0.5909874439239502,
        -0.32704660296440125,
        0.3117625415325165,
        0.6682654023170471
      ],
      "translation": [
        -0.010828256607055664,
        0.7936547994613647,
        0.19536176323890686
      ]
    },
    {
      "name": "def_frontToeRing1_joint.R_0141",
      "rotation": [
        0.5784527659416199,
        -0.3487376868724823,
        0.3363298177719116,
        0.6562443375587463
      ],
      "scale": [
        0.9999998807907104,
        0.9999998807907104,
        0.9999998807907104
      ],
      "translation": [
        -0.24767470359802246,
        0.7963553071022034,
        -0.000860927626490593
      ]
    },
    {
      "name": "def_frontLegLwrAllTwist_joint.R_0142",
      "rotation": [
        -2.561136902556882e-08,
        2.0954754376134588e-08,
        -3.3760443329811096e-09,
        1.0
      ],
      "scale": [
        1.0000001192092896,
        1.0,
        1.0000001192092896
      ],
      "translation": [
        4.76837158203125e-07,
        0.9456935524940491,
        -5.21540641784668e-08
      ]
    },
    {
      "name": "def_frontLegLwrHalfTwist_joint.R_0143",
      "rotation": [
        -3.119930269690485e-08,
        -1.562293476808918e-07,
        9.313223969797946e-09,
        1.0
      ],
      "scale": [
        1.0000001192092896,
        1.0000001192092896,
        1.0000001192092896
      ],
      "translation": [
        3.129243850708008e-07,
        1.261010766029358e-06,
        9.685754776000977e-08
      ]
    },
    {
      "name": "def_frontLegUprHalfTwist_joint.R_0144",
      "rotation": [
        2.3050233721733093e-08,
        5.215407838932151e-08,
        3.282912075519562e-08,
        1.0
      ],
      "scale": [
        0.9999998211860657,
        1.0000001192092896,
        0.9999998211860657
      ],
      "translation": [
        0.0,
        -1.2516975402832031e-06,
        -8.940696716308594e-08
      ]
    },
    {
      "name": "def_frontLegUprAllTwist_joint.R_0145",
      "rotation": [
        7.520429790019989e-08,
        2.715970026656578e-07,
        3.9907172322273254e-07,
        1.0
      ],
      "scale": [
        0.9999998211860657,
        1.0000001192092896,
        0.9999998211860657
      ],
      "translation": [
        1.7881393432617188e-07,
        1.4830856323242188,
        1.0728836059570313e-06
      ]
    },
    {
      "name": "def_chestBreath_joint.L_0146",
      "rotation": [
        -8.13635736562901e-08,
        0.060577359050512314,
        0.9981635212898254,
        3.194319049271144e-07
      ],
      "scale": [
        1.0,
        1.0,
        1.0000048875808716
      ],
      "translation": [
        -1.4536855220794678,
        0.00928814709186554,
        -0.9344334602355957
      ]
    },
    {
      "name": "def_chestBreath_joint.R_0147",
      "rotation": [
        -3.298973538790051e-08,
        0.06057784706354141,
        0.9981634616851807,
        -7.902063998699305e-07
      ],
      "scale": [
        1.0,
        1.0000003576278687,
        1.000020980834961
      ],
      "translation": [
        1.4536852836608887,
        0.009289488196372986,
        -0.9344333410263062
      ]
    },
    {
      "matrix": [
        99.9999940395418,
        2.9803360187559804e-08,
        2.5657909634795007e-06,
        0.0,
        2.5657909729468807e-06,
        -1.4697007001411761e-05,
        -99.99999423781117,
        0.0,
        -2.980297947259376e-08,
        99.99998189154128,
        -1.4697005187644188e-05,
        0.0,
        -1.0788440289244373e-05,
        5.6115760571628925e-06,
        -3.108149360286916e-05,
        1.0
      ],
      "name": "Object_154"
    },
    {
      "mesh": 0,
      "name": "Object_155",
      "skin": 0
    }
  ],
  "samplers": [
    {
      "magFilter": 9729,
      "minFilter": 9987,
      "wrapS": 10497,
      "wrapT": 10497
    }
  ],
  "scene": 0,
  "scenes": [
    {
      "name": "Sketchfab_Scene",
      "nodes": [
        0
      ]
    }
  ],
  "skins": [
    {
      "inverseBindMatrices": 7,
      "joints": [
        5,
        6,
        7,
        8,
        9,
        10,
        11,
        12,
        13,
        14,
        15,
        16,
        17,
        18,
        19,
        20,
        21,
        22,
        23,
        24,
        25,
        26,
        27,
        28,
        29,
        30,
        31,
        32,
        33,
        34,
        35,
        36,
        37,
        38,
        39,
        40,
        41,
        42,
        43,
        44,
        45,
        46,
        47,
        48,
        49,
        50,
        51,
        52,
        53,
        54,
        55,
        56,
        57,
        58,
        59,
        60,
        61,
        62,
        63,
        64,
        65,
        66,
        67,
        68,
        69,
        70,
        71,
        72,
        73,
        74,
        75,
        76,
        77,
        78,
        79,
        80,
        81,
        82,
        83,
        84,
        85,
        86,
        87,
        88,
        89,
        90,
        91,
        92,
        93,
        94,
        95,
        96,
        97,
        98,
        99,
        100,
        101,
        102,
        103,
        104,
        105,
        106,
        107,
        108,
        109,
        110,
        111,
        112,
        113,
        114,
        115,
        116,
        117,
        118,
        119,
        120,
        121,
        122,
        123,
        124,
        125,
        126,
        127,
        128,
        129,
        130,
        131,
        132,
        133,
        134,
        135,
        136,
        137,
        138,
        139,
        140,
        141,
        142,
        143,
        144,
        145,
        146,
        147,
        148,
        149,
        150,
        151,
        152,
        153
      ],
      "skeleton": 5
    }
  ],
  "textures": [
    {
      "sampler": 0,
      "source": 0
    },
    {
      "sampler": 0,
      "source": 1
    },
    {
      "sampler": 0,
      "source": 2
    }
  ]
}
