{
  "accessors": [
    {
      "bufferView": 3,
      "componentType": 5126,
      "count": 3087,
      "max": [
        0.6787241101264954,
        1.923125982284546,
        0.2116364985704422
      ],
      "min": [
        -0.6787238121032715,
        -0.0016182810068130493,
        -0.18209829926490784
      ],
      "type": "VEC3"
    },
    {
      "bufferView": 3,
      "byteOffset": 37044,
      "componentType": 5126,
      "count": 3087,
      "max": [
        0.9992302060127258,
        0.9992002248764038,
        0.9999942183494568
      ],
      "min": [
        -0.999534010887146,
        -0.9967460036277771,
        -0.9999225735664368
      ],
      "type": "VEC3"
    },
    {
      "bufferView": 2,
      "componentType": 5126,
      "count": 3087,
      "max": [
        0.9982280135154724,
        0.9996190071105957
      ],
      "min": [
        0.0005290000117383897,
        0.0011029839515686035
      ],
      "type": "VEC2"
    },
    {
      "bufferView": 1,
      "componentType": 5125,
      "count": 14733,
      "type": "SCALAR"
    },
    {
      "bufferView": 3,
      "byteOffset": 74088,
      "componentType": 5126,
      "count": 50,
      "max": [
        0.06156302988529205,
        1.8046760559082031,
        0.142363503575325
      ],
      "min": [
        -0.062016040086746216,
        1.760246992111206,
        0.12553070485591888
      ],
      "type": "VEC3"
    },
    {
      "bufferView": 3,
      "byteOffset": 74688,
      "componentType": 5126,
      "count": 50,
      "max": [
        0.618047833442688,
        0.029023820534348488,
        0.9969062209129333
      ],
      "min": [
        -0.6180148124694824,
        -0.19709427654743195,
        0.7854467034339905
      ],
      "type": "VEC3"
    },
    {
      "bufferView": 2,
      "byteOffset": 24696,
      "componentType": 5126,
      "count": 50,
      "max": [
        0.9779689908027649,
        0.9417369961738586
      ],
      "min": [
        0.019495999440550804,
        0.06564301252365112
      ],
      "type": "VEC2"
    },
    {
      "bufferView": 1,
      "byteOffset": 58932,
      "componentType": 5125,
      "count": 198,
      "type": "SCALAR"
    },
    {
      "bufferView": 5,
      "componentType": 5126,
      "count": 46,
      "max": [
        1.0,
        0.0,
        0.0,
        0.0,
        0.0,
        1.0,
        0.0,
        0.0,
        0.0,
        0.0,
        1.0,
        0.0,
        0.6710280179977417,
        0.0,
        0.08592983335256577,
        1.0
      ],
      "min": [
        1.0,
        0.0,
        0.0,
        0.0,
        0.0,
        1.0,
        0.0,
        0.0,
        0.0,
        0.0,
        1.0,
        0.0,
        -0.6709027290344238,
        -1.6792819499969482,
        -0.10188619792461395,
        1.0
      ],
      "type": "MAT4"
    },
    {
      "bufferView": 0,
      "componentType": 5123,
      "count": 3087,
      "type": "VEC4"
    },
    {
      "bufferView": 4,
      "componentType": 5126,
      "count": 3087,
      "max": [
        1.0,
        0.5,
        0.3281848132610321,
        0.0
      ],
      "min": [
        0.3401050567626953,
        0.0,
        0.0,
        0.0
      ],
      "type": "VEC4"
    },
    {
      "bufferView": 0,
      "byteOffset": 24696,
      "componentType": 5123,
      "count": 50,
      "type": "VEC4"
    },
    {
      "bufferView": 4,
      "byteOffset": 49392,
      "componentType": 5126,
      "count": 50,
      "max": [
        1.0,
        0.0,
        0.0,
        0.0
      ],
      "min": [
        1.0,
        0.0,
        0.0,
        0.0
      ],
      "type": "VEC4"
    },
    {
      "bufferView": 6,
      "componentType": 5126,
      "count": 1,
      "max": [
        0.0
      ],
      "min": [
        0.0
      ],
      "type": "SCALAR"
    },
    {
      "bufferView": 8,
      "componentType": 5126,
      "count": 1,
      "max": [
        0.018514208495616913,
        4.7381843614857644e-05,
        0.00257942546159029,
        0.9998252391815186
      ],
      "min": [
        0.018514208495616913,
        4.7381843614857644e-05,
        0.00257942546159029,
        0.9998252391815186
      ],
      "type": "VEC4"
    },
    {
      "bufferView": 6,
      "byteOffset": 4,
      "componentType": 5126,
      "count": 1,
      "max": [
        0.0
      ],
      "min": [
        0.0
      ],
      "type": "SCALAR"
    },
    {
      "bufferView": 8,
      "byteOffset": 16,
      "componentType": 5126,
      "count": 1,
      "max": [
        0.00012064661859767511,
        1.0061987723020138e-06,
        3.351205535295776e-08,
        1.0
      ],
      "min": [
        0.00012064661859767511,
        1.0061987723020138e-06,
        3.351205535295776e-08,
        1.0
      ],
      "type": "VEC4"
    },
    {
      "bufferView": 6,
      "byteOffset": 8,
      "componentType": 5126,
      "count": 1,
      "max": [
        0.0
      ],
      "min": [
        0.0
      ],
      "type": "SCALAR"
    },
    {
      "bufferView": 8,
      "byteOffset": 32,
      "componentType": 5126,
      "count": 1,
      "max": [
        -0.01863483153283596,
        -4.808027370017953e-05,
        -0.002579385181888938,
        0.9998230338096619
      ],
      "min": [
        -0.01863483153283596,
        -4.808027370017953e-05,
        -0.002579385181888938,
        0.9998230338096619
      ],
      "type": "VEC4"
    },
    {
      "bufferView": 6,
      "byteOffset": 12,
      "componentType": 5126,
      "count": 1,
      "max": [
        0.0
      ],
      "min": [
        0.0
      ],
      "type": "SCALAR"
    },
    {
      "bufferView": 8,
      "byteOffset": 48,
      "componentType": 5126,
      "count": 1,
      "max": [
        0.018511954694986343,
        -4.737603376270272e-05,
        -0.0025794128887355328,
        0.9998252987861633
      ],
      "min": [
        0.018511954694986343,
        -4.737603376270272e-05,
        -0.0025794128887355328,
        0.9998252987861633
      ],
      "type": "VEC4"
    },
    {
      "bufferView": 6,
      "byteOffset": 16,
      "componentType": 5126,
      "count": 1,
      "max": [
        0.0
      ],
      "min": [
        0.0
      ],
      "type": "SCALAR"
    },
    {
      "bufferView": 8,
      "byteOffset": 64,
      "componentType": 5126,
      "count": 1,
      "max": [
        0.0001240908313775435,
        -1.0224215429843753e-06,
        -3.3727186377063845e-08,
        1.0
      ],
      "min": [
        0.0001240908313775435,
        -1.0224215429843753e-06,
        -3.3727186377063845e-08,
        1.0
      ],
      "type": "VEC4"
    },
    {
      "bufferView": 6,
      "byteOffset": 20,
      "componentType": 5126,
      "count": 1,
      "max": [
        0.0
      ],
      "min": [
        0.0
      ],
      "type": "SCALAR"
    },
    {
      "bufferView": 8,
      "byteOffset": 80,
      "componentType": 5126,
      "count": 1,
      "max": [
        -0.018636029213666916,
        4.807583172805607e-05,
        0.002579493448138237,
        0.9998230338096619
      ],
      "min": [
        -0.018636029213666916,
        4.807583172805607e-05,
        0.002579493448138237,
        0.9998230338096619
      ],
      "type": "VEC4"
    },
    {
      "bufferView": 6,
      "byteOffset": 24,
      "componentType": 5126,
      "count": 1,
      "max": [
        0.0
      ],
      "min": [
        0.0
      ],
      "type": "SCALAR"
    },
    {
      "bufferView": 8,
      "byteOffset": 96,
      "componentType": 5126,
      "count": 1,
      "max": [
        -0.0328441746532917,
        -0.02838164009153843,
        0.17656570672988892,
        0.9833312034606934
      ],
      "min": [
        -0.0328441746532917,
        -0.02838164009153843,
        0.17656570672988892,
        0.9833312034606934
      ],
      "type": "VEC4"
    },
    {
      "bufferView": 6,
      "byteOffset": 28,
      "componentType": 5126,
      "count": 1,
      "max": [
        0.0
      ],
      "min": [
        0.0
      ],
      "type": "SCALAR"
    },
    {
      "bufferView": 8,
      "byteOffset": 112,
      "componentType": 5126,
      "count": 1,
      "max": [
        -0.1976592242717743,
        -0.07379984110593796,
        0.23900796473026276,
        0.9478183388710022
      ],
      "min": [
        -0.1976592242717743,
        -0.07379984110593796,
        0.23900796473026276,
        0.9478183388710022
      ],
      "type": "VEC4"
    },
    {
      "bufferView": 6,
      "byteOffset": 32,
      "componentType": 5126,
      "count": 1,
      "max": [
        0.0
      ],
      "min": [
        0.0
      ],
      "type": "SCALAR"
    },
    {
      "bufferView": 8,
      "byteOffset": 128,
      "componentType": 5126,
      "count": 1,
      "max": [
        -0.07786354422569275,
        -0.029137255623936653,
        0.1594574749469757,
        0.9836979508399963
      ],
      "min": [
        -0.07786354422569275,
        -0.029137255623936653,
        0.1594574749469757,
        0.9836979508399963
      ],
      "type": "VEC4"
    },
    {
      "bufferView": 6,
      "byteOffset": 36,
      "componentType": 5126,
      "count": 1,
      "max": [
        0.0
      ],
      "min": [
        0.0
      ],
      "type": "SCALAR"
    },
    {
      "bufferView": 8,
      "byteOffset": 144,
      "componentType": 5126,
      "count": 1,
      "max": [
        -0.16745132207870483,
        -0.057026948779821396,
        0.2153971791267395,
        0.9603707790374756
      ],
      "min": [
        -0.16745132207870483,
        -0.057026948779821396,
        0.2153971791267395,
        0.9603707790374756
      ],
      "type": "VEC4"
    },
    {
      "bufferView": 6,
      "byteOffset": 40,
      "componentType": 5126,
      "count": 1,
      "max": [
        0.0
      ],
      "min": [
        0.0
      ],
      "type": "SCALAR"
    },
    {
      "bufferView": 8,
      "byteOffset": 160,
      "componentType": 5126,
      "count": 1,
      "max": [
        -0.10453779250383377,
        -0.021806616336107254,
        -0.04155487194657326,
        0.9934130907058716
      ],
      "min": [
        -0.10453779250383377,
        -0.021806616336107254,
        -0.04155487194657326,
        0.9934130907058716
      ],
      "type": "VEC4"
    },
    {
      "bufferView": 6,
      "byteOffset": 44,
      "componentType": 5126,
      "count": 1,
      "max": [
        0.0
      ],
      "min": [
        0.0
      ],
      "type": "SCALAR"
    },
    {
      "bufferView": 8,
      "byteOffset": 176,
      "componentType": 5126,
      "count": 1,
      "max": [
        0.06713800132274628,
        0.18728235363960266,
        0.30017393827438354,
        0.932905912399292
      ],
      "min": [
        0.06713800132274628,
        0.18728235363960266,
        0.30017393827438354,
        0.932905912399292
      ],
      "type": "VEC4"
    },
    {
      "bufferView": 6,
      "byteOffset": 48,
      "componentType": 5126,
      "count": 1,
      "max": [
        0.0
      ],
      "min": [
        0.0
      ],
      "type": "SCALAR"
    },
    {
      "bufferView": 8,
      "byteOffset": 192,
      "componentType": 5126,
      "count": 1,
      "max": [
        -0.018533697351813316,
        0.2419334352016449,
        -0.04524613171815872,
        0.9690601229667664
      ],
      "min": [
        -0.018533697351813316,
        0.2419334352016449,
        -0.04524613171815872,
        0.9690601229667664
      ],
      "type": "VEC4"
    },
    {
      "bufferView": 6,
      "byteOffset": 52,
      "componentType": 5126,
      "count": 1,
      "max": [
        0.0
      ],
      "min": [
        0.0
      ],
      "type": "SCALAR"
    },
    {
      "bufferView": 8,
      "byteOffset": 208,
      "componentType": 5126,
      "count": 1,
      "max": [
        0.022869721055030823,
        0.019248362630605698,
        0.004018066450953484,
        0.9995450377464294
      ],
      "min": [
        0.022869721055030823,
        0.019248362630605698,
        0.004018066450953484,
        0.9995450377464294
      ],
      "type": "VEC4"
    },
    {
      "bufferView": 6,
      "byteOffset": 56,
      "componentType": 5126,
      "count": 1,
      "max": [
        0.0
      ],
      "min": [
        0.0
      ],
      "type": "SCALAR"
    },
    {
      "bufferView": 8,
      "byteOffset": 224,
      "componentType": 5126,
      "count": 1,
      "max": [
        -0.011634735390543938,
        -0.020258095115423203,
        0.33862170577049255,
        0.9406325221061707
      ],
      "min": [
        -0.011634735390543938,
        -0.020258095115423203,
        0.33862170577049255,
        0.9406325221061707
      ],
      "type": "VEC4"
    },
    {
      "bufferView": 6,
      "byteOffset": 60,
      "componentType": 5126,
      "count": 1,
      "max": [
        0.0
      ],
      "min": [
        0.0
      ],
      "type": "SCALAR"
    },
    {
      "bufferView": 8,
      "byteOffset": 240,
      "componentType": 5126,
      "count": 1,
      "max": [
        -4.4534822052355594e-08,
        3.879510490634175e-09,
        0.08678416907787323,
        0.9962271451950073
      ],
      "min": [
        -4.4534822052355594e-08,
        3.879510490634175e-09,
        0.08678416907787323,
        0.9962271451950073
      ],
      "type": "VEC4"
    },
    {
      "bufferView": 6,
      "byteOffset": 64,
      "componentType": 5126,
      "count": 1,
      "max": [
        0.0
      ],
      "min": [
        0.0
      ],
      "type": "SCALAR"
    },
    {
      "bufferView": 8,
      "byteOffset": 256,
      "componentType": 5126,
      "count": 1,
      "max": [
        -0.028845500200986862,
        0.02564600110054016,
        -0.17869976162910461,
        0.9831463098526001
      ],
      "min": [
        -0.028845500200986862,
        0.02564600110054016,
        -0.17869976162910461,
        0.9831463098526001
      ],
      "type": "VEC4"
    },
    {
      "bufferView": 6,
      "byteOffset": 68,
      "componentType": 5126,
      "count": 1,
      "max": [
        0.0
      ],
      "min": [
        0.0
      ],
      "type": "SCALAR"
    },
    {
      "bufferView": 8,
      "byteOffset": 272,
      "componentType": 5126,
      "count": 1,
      "max": [
        -0.19289852678775787,
        0.07032962143421173,
        -0.242670938372612,
        0.9481322169303894
      ],
      "min": [
        -0.19289852678775787,
        0.07032962143421173,
        -0.242670938372612,
        0.9481322169303894
      ],
      "type": "VEC4"
    },
    {
      "bufferView": 6,
      "byteOffset": 72,
      "componentType": 5126,
      "count": 1,
      "max": [
        0.0
      ],
      "min": [
        0.0
      ],
      "type": "SCALAR"
    },
    {
      "bufferView": 8,
      "byteOffset": 288,
      "componentType": 5126,
      "count": 1,
      "max": [
        -0.07571205496788025,
        0.027120186015963554,
        -0.16165436804294586,
        0.9835649728775024
      ],
      "min": [
        -0.07571205496788025,
        0.027120186015963554,
        -0.16165436804294586,
        0.9835649728775024
      ],
      "type": "VEC4"
    },
    {
      "bufferView": 6,
      "byteOffset": 76,
      "componentType": 5126,
      "count": 1,
      "max": [
        0.0
      ],
      "min": [
        0.0
      ],
      "type": "SCALAR"
    },
    {
      "bufferView": 8,
      "byteOffset": 304,
      "componentType": 5126,
      "count": 1,
      "max": [
        -0.16363918781280518,
        0.05406629666686058,
        -0.21897034347057343,
        0.960391104221344
      ],
      "min": [
        -0.16363918781280518,
        0.05406629666686058,
        -0.21897034347057343,
        0.960391104221344
      ],
      "type": "VEC4"
    },
    {
      "bufferView": 6,
      "byteOffset": 80,
      "componentType": 5126,
      "count": 1,
      "max": [
        0.0
      ],
      "min": [
        0.0
      ],
      "type": "SCALAR"
    },
    {
      "bufferView": 8,
      "byteOffset": 320,
      "componentType": 5126,
      "count": 1,
      "max": [
        -0.10516709834337234,
        0.022258726879954338,
        0.0389045849442482,
        0.9934439659118652
      ],
      "min": [
        -0.10516709834337234,
        0.022258726879954338,
        0.0389045849442482,
        0.9934439659118652
      ],
      "type": "VEC4"
    },
    {
      "bufferView": 6,
      "byteOffset": 84,
      "componentType": 5126,
      "count": 1,
      "max": [
        0.0
      ],
      "min": [
        0.0
      ],
      "type": "SCALAR"
    },
    {
      "bufferView": 8,
      "byteOffset": 336,
      "componentType": 5126,
      "count": 1,
      "max": [
        0.07253162562847137,
        -0.191646009683609,
        -0.2957673966884613,
        0.9330233931541443
      ],
      "min": [
        0.07253162562847137,
        -0.191646009683609,
        -0.2957673966884613,
        0.9330233931541443
      ],
      "type": "VEC4"
    },
    {
      "bufferView": 6,
      "byteOffset": 88,
      "componentType": 5126,
      "count": 1,
      "max": [
        0.0
      ],
      "min": [
        0.0
      ],
      "type": "SCALAR"
    },
    {
      "bufferView": 8,
      "byteOffset": 352,
      "componentType": 5126,
      "count": 1,
      "max": [
        -0.011796483770012856,
        -0.2327808290719986,
        0.04677417501807213,
        0.9713321328163147
      ],
      "min": [
        -0.011796483770012856,
        -0.2327808290719986,
        0.04677417501807213,
        0.9713321328163147
      ],
      "type": "VEC4"
    },
    {
      "bufferView": 6,
      "byteOffset": 92,
      "componentType": 5126,
      "count": 1,
      "max": [
        0.0
      ],
      "min": [
        0.0
      ],
      "type": "SCALAR"
    },
    {
      "bufferView": 8,
      "byteOffset": 368,
      "componentType": 5126,
      "count": 1,
      "max": [
        0.022868964821100235,
        -0.01925603486597538,
        -0.0034249802120029926,
        0.9995471239089966
      ],
      "min": [
        0.022868964821100235,
        -0.01925603486597538,
        -0.0034249802120029926,
        0.9995471239089966
      ],
      "type": "VEC4"
    },
    {
      "bufferView": 6,
      "byteOffset": 96,
      "componentType": 5126,
      "count": 1,
      "max": [
        0.0
      ],
      "min": [
        0.0
      ],
      "type": "SCALAR"
    },
    {
      "bufferView": 8,
      "byteOffset": 384,
      "componentType": 5126,
      "count": 1,
      "max": [
        -0.011638089083135128,
        0.020260900259017944,
        -0.338957816362381,
        0.9405113458633423
      ],
      "min": [
        -0.011638089083135128,
        0.020260900259017944,
        -0.338957816362381,
        0.9405113458633423
      ],
      "type": "VEC4"
    },
    {
      "bufferView": 6,
      "byteOffset": 100,
      "componentType": 5126,
      "count": 1,
      "max": [
        0.0
      ],
      "min": [
        0.0
      ],
      "type": "SCALAR"
    },
    {
      "bufferView": 8,
      "byteOffset": 400,
      "componentType": 5126,
      "count": 1,
      "max": [
        -1.4844937723523799e-08,
        -1.2932267479115467e-09,
        -0.08678408712148666,
        0.9962271451950073
      ],
      "min": [
        -1.4844937723523799e-08,
        -1.2932267479115467e-09,
        -0.08678408712148666,
        0.9962271451950073
      ],
      "type": "VEC4"
    },
    {
      "bufferView": 6,
      "byteOffset": 104,
      "componentType": 5126,
      "count": 1,
      "max": [
        0.0
      ],
      "min": [
        0.0
      ],
      "type": "SCALAR"
    },
    {
      "bufferView": 7,
      "componentType": 5126,
      "count": 1,
      "max": [
        -1.1382770281898047e-07,
        0.0016576051712036133,
        -0.01461813971400261
      ],
      "min": [
        -1.1382770281898047e-07,
        0.0016576051712036133,
        -0.01461813971400261
      ],
      "type": "VEC3"
    }
  ],
  "animations": [
    {
      "channels": [
        {
          "sampler": 0,
          "target": {
            "node": 12,
            "path": "rotation"
          }
        },
        {
          "sampler": 1,
          "target": {
            "node": 11,
            "path": "rotation"
          }
        },
        {
          "sampler": 2,
          "target": {
            "node": 10,
            "path": "rotation"
          }
        },
        {
          "sampler": 3,
          "target": {
            "node": 16,
            "path": "rotation"
          }
        },
        {
          "sampler": 4,
          "target": {
            "node": 15,
            "path": "rotation"
          }
        },
        {
          "sampler": 5,
          "target": {
            "node": 14,
            "path": "rotation"
          }
        },
        {
          "sampler": 6,
          "target": {
            "node": 28,
            "path": "rotation"
          }
        },
        {
          "sampler": 7,
          "target": {
            "node": 27,
            "path": "rotation"
          }
        },
        {
          "sampler": 8,
          "target": {
            "node": 31,
            "path": "rotation"
          }
        },
        {
          "sampler": 9,
          "target": {
            "node": 30,
            "path": "rotation"
          }
        },
        {
          "sampler": 10,
          "target": {
            "node": 34,
            "path": "rotation"
          }
        },
        {
          "sampler": 11,
          "target": {
            "node": 33,
            "path": "rotation"
          }
        },
        {
          "sampler": 12,
          "target": {
            "node": 26,
            "path": "rotation"
          }
        },
        {
          "sampler": 13,
          "target": {
            "node": 25,
            "path": "rotation"
          }
        },
        {
          "sampler": 14,
          "target": {
            "node": 24,
            "path": "rotation"
          }
        },
        {
          "sampler": 15,
          "target": {
            "node": 23,
            "path": "rotation"
          }
        },
        {
          "sampler": 16,
          "target": {
            "node": 43,
            "path": "rotation"
          }
        },
        {
          "sampler": 17,
          "target": {
            "node": 42,
            "path": "rotation"
          }
        },
        {
          "sampler": 18,
          "target": {
            "node": 46,
            "path": "rotation"
          }
        },
        {
          "sampler": 19,
          "target": {
            "node": 45,
            "path": "rotation"
          }
        },
        {
          "sampler": 20,
          "target": {
            "node": 49,
            "path": "rotation"
          }
        },
        {
          "sampler": 21,
          "target": {
            "node": 48,
            "path": "rotation"
          }
        },
        {
          "sampler": 22,
          "target": {
            "node": 41,
            "path": "rotation"
          }
        },
        {
          "sampler": 23,
          "target": {
            "node": 40,
            "path": "rotation"
          }
        },
        {
          "sampler": 24,
          "target": {
            "node": 39,
            "path": "rotation"
          }
        },
        {
          "sampler": 25,
          "target": {
            "node": 38,
            "path": "rotation"
          }
        },
        {
          "sampler": 26,
          "target": {
            "node": 8,
            "path": "translation"
          }
        }
      ],
      "name": "mixamo.com",
      "samplers": [
        {
          "input": 13,
          "interpolation": "LINEAR",
          "output": 14
        },
        {
          "input": 15,
          "interpolation": "LINEAR",
          "output": 16
        },
        {
          "input": 17,
          "interpolation": "LINEAR",
          "output": 18
        },
        {
          "input": 19,
          "interpolation": "LINEAR",
          "output": 20
        },
        {
          "input": 21,
          "interpolation": "LINEAR",
          "output": 22
        },
        {
          "input": 23,
          "interpolation": "LINEAR",
          "output": 24
        },
        {
          "input": 25,
          "interpolation": "LINEAR",
          "output": 26
        },
        {
          "input": 27,
          "interpolation": "LINEAR",
          "output": 28
        },
        {
          "input": 29,
          "interpolation": "LINEAR",
          "output": 30
        },
        {
          "input": 31,
          "interpolation": "LINEAR",
          "output": 32
        },
        {
          "input": 33,
          "interpolation": "LINEAR",
          "output": 34
        },
        {
          "input": 35,
          "interpolation": "LINEAR",
          "output": 36
        },
        {
          "input": 37,
          "interpolation": "LINEAR",
          "output": 38
        },
        {
          "input": 39,
          "interpolation": "LINEAR",
          "output": 40
        },
        {
          "input": 41,
          "interpolation": "LINEAR",
          "output": 42
        },
        {
          "input": 43,
          "interpolation": "LINEAR",
          "output": 44
        },
        {
          "input": 45,
          "interpolation": "LINEAR",
          "output": 46
        },
        {
          "input": 47,
          "interpolation": "LINEAR",
          "output": 48
        },
        {
          "input": 49,
          "interpolation": "LINEAR",
          "output": 50
        },
        {
          "input": 51,
          "interpolation": "LINEAR",
          "output": 52
        },
        {
          "input": 53,
          "interpolation": "LINEAR",
          "output": 54
        },
        {
          "input": 55,
          "interpolation": "LINEAR",
          "output": 56
        },
        {
          "input": 57,
          "interpolation": "LINEAR",
          "output": 58
        },
        {
          "input": 59,
          "interpolation": "LINEAR",
          "output": 60
        },
        {
          "input": 61,
          "interpolation": "LINEAR",
          "output": 62
        },
        {
          "input": 63,
          "interpolation": "LINEAR",
          "output": 64
        },
        {
          "input": 65,
          "interpolation": "LINEAR",
          "output": 66
        }
      ]
    }
  ],
  "asset": {
    "extras": {
      "author": "fake gman (https://sketchfab.com/tricky_modeler)",
      "license": "CC-BY-4.0 (http://creativecommons.org/licenses/by/4.0/)",
      "source": "https://sketchfab.com/3d-models/terrorist-3-rigged-0cc0cb619c8f451d9e123ea873061749",
      "title": "Terrorist 3 (Rigged)"
    },
    "generator": "Sketchfab-15.61.0",
    "version": "2.0"
  },
  "bufferViews": [
    {
      "buffer": 0,
      "byteLength": 25096,
      "byteStride": 8,
      "name": "shortBufferViews",
      "target": 34962
    },
    {
      "buffer": 0,
      "byteLength": 59724,
      "byteOffset": 25096,
      "name": "floatBufferViews",
      "target": 34963
    },
    {
      "buffer": 0,
      "byteLength": 25096,
      "byteOffset": 84820,
      "byteStride": 8,
      "name": "floatBufferViews",
      "target": 34962
    },
    {
      "buffer": 0,
      "byteLength": 75288,
      "byteOffset": 109916,
      "byteStride": 12,
      "name": "floatBufferViews",
      "target": 34962
    },
    {
      "buffer": 0,
      "byteLength": 50192,
      "byteOffset": 185204,
      "byteStride": 16,
      "name": "floatBufferViews",
      "target": 34962
    },
    {
      "buffer": 0,
      "byteLength": 2944,
      "byteOffset": 235396,
      "name": "floatBufferViews"
    },
    {
      "buffer": 0,
      "byteLength": 108,
      "byteOffset": 238340,
      "name": "floatBufferViews"
    },
    {
      "buffer": 0,
      "byteLength": 12,
      "byteOffset": 238448,
      "byteStride": 12,
      "name": "floatBufferViews"
    },
    {
      "buffer": 0,
      "byteLength": 416,
      "byteOffset": 238460,
      "byteStride": 16,
      "name": "floatBufferViews"
    }
  ],
  "buffers": [
    {
      "byteLength": 238876,
      "uri": "scene.bin"
    }
  ],
  "images": [
    {
      "uri": "textures/24_mesh0_0.3_0_0.001_baseColor.png"
    }
  ],
  "materials": [
    {
      "doubleSided": true,
      "name": "24_mesh0_0.3_0_0.001",
      "pbrMetallicRoughness": {
        "baseColorTexture": {
          "index": 0
        },
        "metallicFactor": 0.0,
        "roughnessFactor": 0.9577051494623774
      }
    },
    {
      "doubleSided": true,
      "name": "7_mesh1_1_0_0",
      "pbrMetallicRoughness": {
        "baseColorFactor": [
          0.8,
          0.8,
          0.8,
          1.0
        ],
        "metallicFactor": 0.0,
        "roughnessFactor": 0.9577051494623774
      }
    }
  ],
  "meshes": [
    {
      "name": "24_mesh0_0.3_0_0.001_24_mesh0_0.3_0_0.001_0",
      "primitives": [
        {
          "attributes": {
            "JOINTS_0": 9,
            "NORMAL": 1,
            "POSITION": 0,
            "TEXCOORD_0": 2,
            "WEIGHTS_0": 10
          },
          "indices": 3,
          "material": 0,
          "mode": 4
        }
      ]
    },
    {
      "name": "7_mesh1_1_0_0_7_mesh1_1_0_0_0",
      "primitives": [
        {
          "attributes": {
            "JOINTS_0": 11,
            "NORMAL": 5,
            "POSITION": 4,
            "TEXCOORD_0": 6,
            "WEIGHTS_0": 12
          },
          "indices": 7,
          "material": 1,
          "mode": 4
        }
      ]
    }
  ],
  "nodes": [
    {
      "children": [
        1
      ],
      "matrix": [
        141.13429260253906,
        0.0,
        0.0,
        0.0,
        0.0,
        3.1338108242304555e-14,
        -141.13429260253906,
        0.0,
        0.0,
        141.13429260253906,
        3.1338108242304555e-14,
        0.0,
        0.0,
        0.0,
        0.0,
        1.0
      ],
      "name": "Sketchfab_model"
    },
    {
      "children": [
        2
      ],
      "matrix": [
        0.009999999776482582,
        0.0,
        0.0,
        0.0,
        0.0,
        0.0,
        0.009999999776482582,
        0.0,
        0.0,
        -0.009999999776482582,
        0.0,
        0.0,
        0.0,
        0.0,
        0.0,
        1.0
      ],
      "name": "Leet Terrorist.fbx"
    },
    {
      "children": [
        3
      ],
      "name": "Object_2"
    },
    {
      "children": [
        4
      ],
      "name": "RootNode"
    },
    {
      "children": [
        5,
        6,
        7,
        53,
        54
      ],
      "name": "Object_4"
    },
    {
      "children": [
        8
      ],
      "name": "_rootJoint"
    },
    {
      "mesh": 0,
      "name": "Object_6",
      "skin": 0
    },
    {
      "mesh": 1,
      "name": "Object_7",
      "skin": 0
    },
    {
      "children": [
        9
      ],
      "name": "root ground_01"
    },
    {
      "children": [
        10,
        14,
        18
      ],
      "name": "root hips_02",
      "translation": [
        0.0,
        1.0897129774093628,
        -0.06365588307380676
      ]
    },
    {
      "children": [
        11
      ],
      "name": "leg left thigh_03",
      "translation": [
        0.10115160048007965,
        -0.08697295188903809,
        0.07752938568592072
      ]
    },
    {
      "children": [
        12
      ],
      "name": "leg left knee_04",
      "translation": [
        0.0024174004793167114,
        -0.46342313289642334,
        -0.024045029655098915
      ]
    },
    {
      "children": [
        13
      ],
      "name": "leg left ankle_05",
      "translation": [
        0.0022382959723472595,
        -0.42806148529052734,
        -0.0369214303791523
      ]
    },
    {
      "name": "leg left toes_06",
      "translation": [
        0.007807701826095581,
        -0.09867727756500244,
        0.14897915720939636
      ]
    },
    {
      "children": [
        15
      ],
      "name": "leg right thigh_07",
      "translation": [
        -0.10115160048007965,
        -0.08697295188903809,
        0.07752938568592072
      ]
    },
    {
      "children": [
        16
      ],
      "name": "leg right knee_08",
      "translation": [
        -0.002418600022792816,
        -0.4634232521057129,
        -0.02404503896832466
      ]
    },
    {
      "children": [
        17
      ],
      "name": "leg right ankle_09",
      "translation": [
        -0.002237096428871155,
        -0.42806118726730347,
        -0.0369214303791523
      ]
    },
    {
      "name": "leg right toes_010",
      "translation": [
        -0.007807902991771698,
        -0.09867720305919647,
        0.14897917211055756
      ]
    },
    {
      "children": [
        19
      ],
      "name": "spine lower_011",
      "translation": [
        3.715463137154984e-08,
        0.10353207588195801,
        -0.008633136749267578
      ]
    },
    {
      "children": [
        20
      ],
      "name": "spine upper_012",
      "translation": [
        3.366239198498988e-08,
        0.09095489978790283,
        -0.010230571031570435
      ]
    },
    {
      "children": [
        21,
        23,
        38
      ],
      "name": "spine upper 1_013",
      "translation": [
        7.708287341756659e-08,
        0.23193299770355225,
        -0.00341024249792099
      ]
    },
    {
      "children": [
        22
      ],
      "name": "head neck lower_014",
      "translation": [
        2.199820414716669e-08,
        0.0847010612487793,
        0.014688700437545776
      ]
    },
    {
      "name": "head neck upper_015",
      "translation": [
        5.8764015875567566e-09,
        0.07844793796539307,
        0.05115266144275665
      ]
    },
    {
      "children": [
        24
      ],
      "name": "arm left shoulder 1_016",
      "translation": [
        0.0503791905939579,
        0.04841601848602295,
        0.034201692789793015
      ]
    },
    {
      "children": [
        25
      ],
      "name": "arm left shoulder 2_017",
      "translation": [
        0.15044096112251282,
        -0.04394996166229248,
        0.0008675307035446167
      ]
    },
    {
      "children": [
        26,
        36,
        37
      ],
      "name": "arm left elbow_00",
      "translation": [
        0.19700101017951965,
        -0.2311040163040161,
        -0.014196958392858505
      ]
    },
    {
      "children": [
        27,
        30,
        33
      ],
      "name": "arm left wrist_018",
      "translation": [
        0.1917678713798523,
        -0.22874903678894043,
        0.003908567130565643
      ]
    },
    {
      "children": [
        28
      ],
      "name": "arm left finger 3a_019",
      "translation": [
        0.07128459215164185,
        -0.07179903984069824,
        0.009314291179180145
      ]
    },
    {
      "children": [
        29
      ],
      "name": "arm left finger 3b_020",
      "translation": [
        0.010028958320617676,
        -0.043275415897369385,
        -0.005056258291006088
      ]
    },
    {
      "name": "arm left finger 3c_021",
      "translation": [
        -0.004209756851196289,
        -0.030637085437774658,
        -0.005659598857164383
      ]
    },
    {
      "children": [
        31
      ],
      "name": "arm left finger 2a_022",
      "translation": [
        0.06720340251922607,
        -0.0757136344909668,
        0.03217975050210953
      ]
    },
    {
      "children": [
        32
      ],
      "name": "arm left finger 2b_023",
      "translation": [
        0.01219242811203003,
        -0.04296773672103882,
        -0.0019176900386810303
      ]
    },
    {
      "name": "arm left finger 2c_024",
      "translation": [
        -0.0014306902885437012,
        -0.027954280376434326,
        -0.005827348679304123
      ]
    },
    {
      "children": [
        34
      ],
      "name": "arm left finger 1a_025",
      "translation": [
        0.006008744239807129,
        -0.02482593059539795,
        0.032390713691711426
      ]
    },
    {
      "children": [
        35
      ],
      "name": "arm left finger 1b_026",
      "translation": [
        -0.0016510486602783203,
        -0.039267539978027344,
        0.024915721267461777
      ]
    },
    {
      "name": "arm left finger 1c_027",
      "translation": [
        0.0017693042755126953,
        -0.02936786413192749,
        0.010919187217950821
      ]
    },
    {
      "name": "arm left fix wrist_028",
      "translation": [
        0.19176888465881348,
        -0.22874903678894043,
        0.0039086900651454926
      ]
    },
    {
      "name": "arm left fix forearm 1_029",
      "translation": [
        0.09588438272476196,
        -0.11437404155731201,
        0.0019543617963790894
      ]
    },
    {
      "children": [
        39
      ],
      "name": "arm right shoulder 1_030",
      "translation": [
        -0.0503791905939579,
        0.04841601848602295,
        0.034201644361019135
      ]
    },
    {
      "children": [
        40
      ],
      "name": "arm right shoulder 2_031",
      "translation": [
        -0.15044106543064117,
        -0.04394996166229248,
        0.0008674301207065582
      ]
    },
    {
      "children": [
        41,
        51,
        52
      ],
      "name": "arm right elbow_032",
      "translation": [
        -0.19683809578418732,
        -0.23124098777770996,
        -0.014223698526620865
      ]
    },
    {
      "children": [
        42,
        45,
        48
      ],
      "name": "arm right wrist_033",
      "translation": [
        -0.19193169474601746,
        -0.22861206531524658,
        0.00393526628613472
      ]
    },
    {
      "children": [
        43
      ],
      "name": "arm right finger 3a_034",
      "translation": [
        -0.07147860527038574,
        -0.07162994146347046,
        0.009120400995016098
      ]
    },
    {
      "children": [
        44
      ],
      "name": "arm right finger 3b_035",
      "translation": [
        -0.009959518909454346,
        -0.04334449768066406,
        -0.004576500505208969
      ]
    },
    {
      "name": "arm right finger 3c_036",
      "translation": [
        0.004294395446777344,
        -0.03072112798690796,
        -0.005115538835525513
      ]
    },
    {
      "children": [
        46
      ],
      "name": "arm right finger 2a_037",
      "translation": [
        -0.06781208515167236,
        -0.07519668340682983,
        0.03211268037557602
      ]
    },
    {
      "children": [
        47
      ],
      "name": "arm right finger 2b_038",
      "translation": [
        -0.01217883825302124,
        -0.04298865795135498,
        -0.0014824792742729187
      ]
    },
    {
      "name": "arm right finger 2c_039",
      "translation": [
        0.0015206336975097656,
        -0.028040528297424316,
        -0.005374319851398468
      ]
    },
    {
      "children": [
        49
      ],
      "name": "arm right finger 1a_040",
      "translation": [
        -0.006603717803955078,
        -0.024327993392944336,
        0.032651402056217194
      ]
    },
    {
      "children": [
        50
      ],
      "name": "arm right finger 1b_041",
      "translation": [
        0.0011808276176452637,
        -0.03888368606567383,
        0.025536496192216873
      ]
    },
    {
      "name": "arm right finger 1c_042",
      "translation": [
        -0.001981496810913086,
        -0.02919769287109375,
        0.011331374756991863
      ]
    },
    {
      "name": "arm right fix wrist_043",
      "translation": [
        -0.19193169474601746,
        -0.22861206531524658,
        0.00393526628613472
      ]
    },
    {
      "name": "arm right fix forearm 1_044",
      "translation": [
        -0.09596580266952515,
        -0.11430597305297852,
        0.0019676610827445984
      ]
    },
    {
      "name": "24_mesh0_0.3_0_0.001"
    },
    {
      "name": "7_mesh1_1_0_0"
    }
  ],
  "samplers": [
    {
      "magFilter": 9729,
      "minFilter": 9987,
      "wrapS": 10497,
      "wrapT": 10497
    }
  ],
  "scene": 0,
  "scenes": [
    {
      "name": "Sketchfab_Scene",
      "nodes": [
        0
      ]
    }
  ],
  "skins": [
    {
      "inverseBindMatrices": 8,
      "joints": [
        5,
        8,
        9,
        10,
        11,
        12,
        13,
        14,
        15,
        16,
        17,
        18,
        19,
        20,
        21,
        22,
        23,
        24,
        25,
        26,
        27,
        28,
        29,
        30,
        31,
        32,
        33,
        34,
        35,
        36,
        37,
        38,
        39,
        40,
        41,
        42,
        43,
        44,
        45,
        46,
        47,
        48,
        49,
        50,
        51,
        52
      ],
      "skeleton": 5
    }
  ],
  "textures": [
    {
      "sampler": 0,
      "source": 0
    }
  ]
}
